<svg id="Layer_1" data-name="Layer 1" xmlns="http://www.w3.org/2000/svg" viewBox="0 0 511 492.2"><defs><style>.cls-1{fill:#d0f4ef;}.cls-2{fill:#abe0da;}.cls-3{fill:#399465;}.cls-4{fill:#2b6f40;}.cls-5{fill:#628fb1;}.cls-6{fill:#91d5a6;}.cls-7{fill:#ffbd47;}.cls-8{fill:#38aaff;}</style></defs><title>date</title><path class="cls-1" d="M457.7,456.8H11.4A12.31,12.31,0,0,1-.9,444.4V77.4A39.2,39.2,0,0,1,38.3,38.2H431a39.2,39.2,0,0,1,39.2,39.2v367A12.61,12.61,0,0,1,457.7,456.8Z" transform="translate(1 -10)"/><path class="cls-2" d="M470,77.4v367a12.38,12.38,0,0,1-12.3,12.4H420.2a12.4,12.4,0,0,0,12.4-12.4V77.4a39.2,39.2,0,0,0-39.2-39.2h37.5A39.24,39.24,0,0,1,470,77.4Z" transform="translate(1 -10)"/><path class="cls-3" d="M431.7,78.3v59H-1v-59C-1,57,15.1,39.7,35,39.7H395.7C415.6,39.7,431.7,57,431.7,78.3Z" transform="translate(1 -10)"/><path class="cls-4" d="M470,77.4v59.9H432.6V77.4a39.2,39.2,0,0,0-39.2-39.2h37.5A39.24,39.24,0,0,1,470,77.4Z" transform="translate(1 -10)"/><path class="cls-5" d="M78.3,183H51.5a7.7,7.7,0,0,1,0-15.4H78.3a7.7,7.7,0,0,1,0,15.4Z" transform="translate(1 -10)"/><path class="cls-5" d="M160.7,183H133.9a7.7,7.7,0,0,1,0-15.4h26.8a7.7,7.7,0,1,1,0,15.4Z" transform="translate(1 -10)"/><path class="cls-5" d="M243.1,183H216.3a7.7,7.7,0,0,1,0-15.4h26.8a7.7,7.7,0,1,1,0,15.4Z" transform="translate(1 -10)"/><path class="cls-5" d="M325.5,183H298.7a7.7,7.7,0,1,1,0-15.4h26.8a7.7,7.7,0,0,1,0,15.4Z" transform="translate(1 -10)"/><path class="cls-5" d="M407.8,183H381a7.7,7.7,0,1,1,0-15.4h26.8a7.7,7.7,0,0,1,0,15.4Z" transform="translate(1 -10)"/><path class="cls-5" d="M78.3,221.8H51.5a7.7,7.7,0,0,1,0-15.4H78.3a7.7,7.7,0,1,1,0,15.4Z" transform="translate(1 -10)"/><path class="cls-5" d="M160.7,221.8H133.9a7.7,7.7,0,0,1,0-15.4h26.8a7.7,7.7,0,1,1,0,15.4Z" transform="translate(1 -10)"/><path class="cls-5" d="M243.1,221.8H216.3a7.7,7.7,0,1,1,0-15.4h26.8a7.7,7.7,0,1,1,0,15.4Z" transform="translate(1 -10)"/><path class="cls-5" d="M325.5,221.8H298.7a7.7,7.7,0,1,1,0-15.4h26.8a7.7,7.7,0,0,1,0,15.4Z" transform="translate(1 -10)"/><path class="cls-5" d="M407.8,221.8H381a7.7,7.7,0,1,1,0-15.4h26.8a7.7,7.7,0,0,1,0,15.4Z" transform="translate(1 -10)"/><path class="cls-6" d="M195.2,414a22.56,22.56,0,0,1-16-6.6l-39.6-39.6a22.63,22.63,0,0,1,32-32l23.6,23.6,92.6-92.6a22.63,22.63,0,0,1,32,32L211.2,407.3A22.25,22.25,0,0,1,195.2,414Z" transform="translate(1 -10)"/><path class="cls-7" d="M83.1,69.5H68.8a11,11,0,0,1-11-11V21a11,11,0,0,1,11-11H83.1a11,11,0,0,1,11,11V58.5A11,11,0,0,1,83.1,69.5Z" transform="translate(1 -10)"/><path class="cls-7" d="M186.1,69.5H171.8a11,11,0,0,1-11-11V21a11,11,0,0,1,11-11h14.3a11,11,0,0,1,11,11V58.5A11,11,0,0,1,186.1,69.5Z" transform="translate(1 -10)"/><path class="cls-7" d="M289,69.5H274.7a11,11,0,0,1-11-11V21a11,11,0,0,1,11-11H289a11,11,0,0,1,11,11V58.5A11,11,0,0,1,289,69.5Z" transform="translate(1 -10)"/><path class="cls-7" d="M391.9,69.5H377.6a11,11,0,0,1-11-11V21a11,11,0,0,1,11-11h14.3a11,11,0,0,1,11,11V58.5A11,11,0,0,1,391.9,69.5Z" transform="translate(1 -10)"/><path class="cls-8" d="M510,407.6A94.6,94.6,0,1,1,415.4,313,94.66,94.66,0,0,1,510,407.6Z" transform="translate(1 -10)"/><path class="cls-1" d="M483.4,407.6a68,68,0,1,1-68-68A68,68,0,0,1,483.4,407.6Z" transform="translate(1 -10)"/><path class="cls-5" d="M415.4,368.2a7.7,7.7,0,0,1-7.7-7.7v-9.4a7.7,7.7,0,0,1,15.4,0v9.4A7.7,7.7,0,0,1,415.4,368.2Z" transform="translate(1 -10)"/><path class="cls-5" d="M415.4,471.8a7.7,7.7,0,0,1-7.7-7.7v-9.4a7.7,7.7,0,0,1,15.4,0v9.4A7.7,7.7,0,0,1,415.4,471.8Z" transform="translate(1 -10)"/><path class="cls-5" d="M471.9,415.3h-9.4a7.7,7.7,0,1,1,0-15.4h9.4a7.7,7.7,0,1,1,0,15.4Z" transform="translate(1 -10)"/><path class="cls-7" d="M432.4,415.3h-17a7.7,7.7,0,0,1-7.7-7.7V392a7.7,7.7,0,0,1,15.4,0v7.9h9.3a7.7,7.7,0,1,1,0,15.4Z" transform="translate(1 -10)"/><path class="cls-5" d="M368.3,415.3h-9.4a7.7,7.7,0,1,1,0-15.4h9.4a7.7,7.7,0,0,1,0,15.4Z" transform="translate(1 -10)"/></svg>