<svg xmlns="http://www.w3.org/2000/svg" xmlns:xlink="http://www.w3.org/1999/xlink" width="495" height="130" viewBox="0 0 495 130">
  <defs>
    <clipPath id="clip-income-card">
      <rect width="495" height="130"/>
    </clipPath>
  </defs>
  <g id="income-card" clip-path="url(#clip-income-card)">
    <rect width="495" height="130" fill="#be7575"/>
    <g id="Group_10" data-name="Group 10" transform="translate(451 95)" opacity="0.23">
      <path id="Path_60" data-name="Path 60" d="M9.94,18.533A5.253,5.253,0,0,1,14.736,15c2.89,0,4.97,2.687,5.232,5.889a6.354,6.354,0,0,1-.17,2.225,10.035,10.035,0,0,1-2.759,5L9.94,35,2.961,28.115a10.027,10.027,0,0,1-2.759-5,6.36,6.36,0,0,1-.17-2.226C.294,17.687,2.374,15,5.264,15A5.1,5.1,0,0,1,9.94,18.533Z" fill="#c03a2b"/>
      <path id="Path_61" data-name="Path 61" d="M2.4,21.99a.418.418,0,0,1-.4-.434,4.189,4.189,0,0,1,4-4.348.436.436,0,0,1,0,.869,3.353,3.353,0,0,0-3.2,3.479A.418.418,0,0,1,2.4,21.99Z" fill="#ed7161"/>
    </g>
    <g id="Group_17" data-name="Group 17" transform="translate(1.867 -238.134)" opacity="0.49">
      <g id="Group_11" data-name="Group 11">
        <path id="Path_62" data-name="Path 62" d="M22.633,259.062c3.25-3.249,7.5-5.123,7.5-9.121a3.941,3.941,0,0,0-7.5-1.749,3.941,3.941,0,0,0-7.5,1.749C15.133,254,19.571,255.876,22.633,259.062Z" fill="#66c6b9"/>
        <path id="Path_63" data-name="Path 63" d="M24.071,259.624a1.929,1.929,0,0,1-2.813,0c.313-.375.875-.687.875-1.187h1C23.133,258.937,23.758,259.187,24.071,259.624Z" fill="#66c6b9"/>
      </g>
      <path id="Path_64" data-name="Path 64" d="M28.2,248.317c.437.5.625,1.125.375,1.312s-.813,0-1.25-.562c-.438-.5-.625-1.125-.375-1.312C27.133,247.568,27.695,247.818,28.2,248.317Z" fill="#fff"/>
      <g id="Group_12" data-name="Group 12">
        <path id="Path_65" data-name="Path 65" d="M23.258,258.812H22.07a.188.188,0,0,1,0-.375h1.188a.166.166,0,0,1,.188.187A.2.2,0,0,1,23.258,258.812Z" fill="#415a6b"/>
        <path id="Path_66" data-name="Path 66" d="M21.508,260.124c-.063,0-.188-.063-.188-.125a.325.325,0,0,1,.125-.25c.188-.063.313-.125.313-.437a1.488,1.488,0,0,1,.562-.813.183.183,0,0,1,.188.313.763.763,0,0,0-.375.562c0,.437-.187.625-.625.75Z" fill="#415a6b"/>
        <path id="Path_67" data-name="Path 67" d="M23.633,262.747a6.716,6.716,0,0,1-.625-4.123v-.062h-.375a6.688,6.688,0,0,0,.687,4.373c1,1.811-.5,5.06-.5,5.122-.062.125,0,.187.063.25h.063c.062,0,.125-.063.187-.125C23.195,268.057,24.758,264.746,23.633,262.747Z" fill="#415a6b"/>
      </g>
      <g id="Group_13" data-name="Group 13">
        <path id="Path_68" data-name="Path 68" d="M8.008,254.876c3.438-3.435,7.875-5.372,7.875-9.557a4.174,4.174,0,0,0-4.125-4.185,3.992,3.992,0,0,0-3.687,2.373,4.314,4.314,0,0,0-3.813-2.373,4.174,4.174,0,0,0-4.125,4.185C.133,249.567,4.82,251.5,8.008,254.876Z" fill="#f3705a"/>
        <path id="Path_69" data-name="Path 69" d="M9.446,255.439a2.076,2.076,0,0,1-2.938,0c.313-.438.938-.688.938-1.25H8.508C8.508,254.689,9.133,255,9.446,255.439Z" fill="#f3705a"/>
      </g>
      <path id="Path_70" data-name="Path 70" d="M13.82,243.57c.5.562.626,1.187.375,1.374-.25.25-.874,0-1.312-.562-.5-.562-.625-1.187-.375-1.374C12.758,242.758,13.321,243.008,13.82,243.57Z" fill="#fff"/>
      <g id="Group_14" data-name="Group 14">
        <path id="Path_71" data-name="Path 71" d="M8.633,254.564H7.383a.188.188,0,0,1,0-.375h1.25a.166.166,0,0,1,.188.188C8.883,254.439,8.758,254.564,8.633,254.564Z" fill="#415a6b"/>
        <path id="Path_72" data-name="Path 72" d="M6.821,255.938c-.063,0-.188-.062-.188-.125a.327.327,0,0,1,.125-.25.469.469,0,0,0,.375-.437,1.724,1.724,0,0,1,.563-.874.182.182,0,1,1,.187.312,1.051,1.051,0,0,0-.438.562.716.716,0,0,1-.624.812Z" fill="#415a6b"/>
        <path id="Path_73" data-name="Path 73" d="M9.008,258.687a6.808,6.808,0,0,1-.625-4.31v-.063H8.008a7.239,7.239,0,0,0,.687,4.56c1.063,1.874-.5,5.31-.562,5.372-.063.125,0,.25.125.25H8.32c.063,0,.125-.062.188-.125S10.2,260.748,9.008,258.687Z" fill="#415a6b"/>
      </g>
      <g id="Group_15" data-name="Group 15">
        <path id="Path_74" data-name="Path 74" d="M15.133,264.309c3.125-3.061,7.125-4.873,7.125-8.621a3.747,3.747,0,0,0-7.125-1.624,3.747,3.747,0,0,0-7.125,1.624C8.008,259.5,12.258,261.248,15.133,264.309Z" fill="#ffd15c"/>
        <path id="Path_75" data-name="Path 75" d="M16.445,264.746a1.812,1.812,0,0,1-2.625,0c.313-.375.875-.625.875-1.124h.938C15.633,264.121,16.2,264.371,16.445,264.746Z" fill="#ffd15c"/>
      </g>
      <path id="Path_76" data-name="Path 76" d="M20.383,254.064c.438.5.562,1.062.375,1.25s-.75,0-1.188-.5-.562-1.062-.375-1.249S19.946,253.565,20.383,254.064Z" fill="#fff"/>
      <g id="Group_16" data-name="Group 16">
        <path id="Path_77" data-name="Path 77" d="M15.758,264H14.633a.188.188,0,0,1,0-.375h1.125a.166.166,0,0,1,.188.187C15.883,263.934,15.821,264,15.758,264Z" fill="#415a6b"/>
        <path id="Path_78" data-name="Path 78" d="M14.071,265.246c-.063,0-.188-.063-.188-.125a.327.327,0,0,1,.125-.25c.187-.062.312-.125.312-.375a1.309,1.309,0,0,1,.5-.749.182.182,0,1,1,.188.312.776.776,0,0,0-.375.5.63.63,0,0,1-.562.687Z" fill="#415a6b"/>
        <path id="Path_79" data-name="Path 79" d="M15.883,270.993c0,.187.375.187.375,0a4.461,4.461,0,0,0-.188-3.248,6.2,6.2,0,0,1-.562-3.873v-.063h-.375a6.639,6.639,0,0,0,.625,4.123A4.286,4.286,0,0,1,15.883,270.993Z" fill="#415a6b"/>
      </g>
    </g>
    <g id="Group_24" data-name="Group 24" transform="translate(155.521 19.472) rotate(-40)">
      <path id="Path_110" data-name="Path 110" d="M56.407,126.834v4.517c22.629,0,44.179,25.2,54.91,64.2l2.355-1.943C102.513,153.046,80.035,126.834,56.407,126.834Z" transform="translate(-56.407 -126.834)" fill="#ffb531"/>
      <path id="Path_111" data-name="Path 111" d="M115.1,125.553c-.561,0-1.059.623-1.237,1.544l-2.133,11.079-6.481-5.623c-.645-.557-1.428-.1-1.751,1.012a3.187,3.187,0,0,0,.585,3.031l7.825,6.774c.643.563,1.427.116,1.752-1,.029-.1.053-.2.074-.309l2.609-13.55a2.844,2.844,0,0,0-.834-2.847A.8.8,0,0,0,115.1,125.553Z" transform="translate(-56.407 -73.613)" fill="#ffb531"/>
    </g>
    <g id="Group_84" data-name="Group 84" transform="translate(-22 -158)">
      <path id="Path_206" data-name="Path 206" d="M81.931,241.556v35.555H26.069V241.556a2.157,2.157,0,0,1,2.069-2.223H79.862A2.157,2.157,0,0,1,81.931,241.556Z" fill="#2488ff"/>
      <path id="Path_207" data-name="Path 207" d="M62.276,252.667h4.138v5.555H62.276Z" fill="#898890"/>
      <path id="Path_208" data-name="Path 208" d="M67.448,258.222v11.111a3.111,3.111,0,1,1-6.207,0V258.222Z" fill="#898890"/>
      <path id="Path_209" data-name="Path 209" d="M62.276,259.333H63.31v7.778H62.276Z" fill="#acabb1"/>
      <path id="Path_210" data-name="Path 210" d="M66.414,255.833v2.389H62.276v-2.389A12.881,12.881,0,0,0,66.414,255.833Z" fill="#acabb1"/>
      <path id="Path_211" data-name="Path 211" d="M61.241,239.333h-33.1a2.157,2.157,0,0,0-2.069,2.223v35.555C26.126,256.272,41.84,239.394,61.241,239.333Z" fill="#57a4ff"/>
      <path id="Path_212" data-name="Path 212" d="M84,279.333v1.111A5.374,5.374,0,0,1,78.828,286H29.172A5.374,5.374,0,0,1,24,280.444v-1.111a2.157,2.157,0,0,1,2.069-2.222H81.931A2.157,2.157,0,0,1,84,279.333Z" fill="#787680"/>
      <path id="Path_213" data-name="Path 213" d="M61.241,277.111v2.222a2.156,2.156,0,0,1-2.069,2.223H48.828a2.156,2.156,0,0,1-2.069-2.223v-2.222Z" fill="#e0e0e2"/>
      <g id="Group_83" data-name="Group 83">
        <path id="Path_214" data-name="Path 214" d="M30.207,262.667h4.138v10H30.207Z" fill="#ff9811"/>
        <path id="Path_215" data-name="Path 215" d="M38.483,257.111h4.138v15.556H38.483Z" fill="#ff9811"/>
        <path id="Path_216" data-name="Path 216" d="M46.759,252.667H50.9v20H46.759Z" fill="#ff9811"/>
      </g>
      <path id="Path_217" data-name="Path 217" d="M28.138,278.222h7.241a1.075,1.075,0,0,1,1.035,1.111h0a1.075,1.075,0,0,1-1.035,1.111H28.138a1.075,1.075,0,0,1-1.035-1.111h0A1.076,1.076,0,0,1,28.138,278.222Z" fill="#898890"/>
      <ellipse id="Ellipse_27" data-name="Ellipse 27" cx="13.448" cy="14.444" rx="13.448" ry="14.444" transform="translate(50.897 226)" fill="#9bfbff"/>
      <ellipse id="Ellipse_28" data-name="Ellipse 28" cx="8.276" cy="8.889" rx="8.276" ry="8.889" transform="translate(56.069 231.556)" fill="#ffda44"/>
      <path id="Path_218" data-name="Path 218" d="M65.379,239.333v-2.222a1.075,1.075,0,0,1,1.035,1.111h2.069a3.225,3.225,0,0,0-3.1-3.333v-1.111H63.31v1.111a3.342,3.342,0,0,0,0,6.667v2.222a1.075,1.075,0,0,1-1.034-1.111H60.207A3.224,3.224,0,0,0,63.31,246v1.111h2.069V246a3.342,3.342,0,0,0,0-6.667Zm-3.1-1.111a1.075,1.075,0,0,1,1.034-1.111v2.222A1.074,1.074,0,0,1,62.276,238.222Zm3.1,5.556v-2.222a1.114,1.114,0,0,1,0,2.222Z" fill="#fff"/>
      <path id="Path_219" data-name="Path 219" d="M57.1,241.556c0-4.91,3.709-8.888,8.28-8.886a7.939,7.939,0,0,1,5.306,2.071,7.89,7.89,0,0,0-11.654-1.153,9.348,9.348,0,0,0-1.074,12.518,8.579,8.579,0,0,0,1.074,1.153A9.252,9.252,0,0,1,57.1,241.556Z" fill="#ffe26e"/>
    </g>
    <g id="Group_86" data-name="Group 86" transform="translate(72 -159)">
      <g id="Group_85" data-name="Group 85">
        <path id="Path_220" data-name="Path 220" d="M21.695,261.509H35.254v4.745H21.695Z" fill="#f98500"/>
        <path id="Path_221" data-name="Path 221" d="M2.712,261.509H16.271v4.745H2.712Z" fill="#f98500"/>
        <path id="Path_222" data-name="Path 222" d="M46.1,261.509H59.661v4.745H46.1Z" fill="#f98500"/>
        <path id="Path_223" data-name="Path 223" d="M65.085,256.763H78.644v4.746H65.085Z" fill="#f98500"/>
        <path id="Path_224" data-name="Path 224" d="M21.695,252.017H35.254v4.746H21.695Z" fill="#f98500"/>
        <path id="Path_225" data-name="Path 225" d="M2.712,252.017H16.271v4.746H2.712Z" fill="#f98500"/>
        <path id="Path_226" data-name="Path 226" d="M18.983,242.525H32.542v4.746H18.983Z" fill="#f98500"/>
        <path id="Path_227" data-name="Path 227" d="M43.39,252.017H56.949v4.746H43.39Z" fill="#f98500"/>
        <path id="Path_228" data-name="Path 228" d="M65.085,247.271H78.644v4.746H65.085Z" fill="#f98500"/>
        <path id="Path_229" data-name="Path 229" d="M65.085,237.78H78.644v4.745H65.085Z" fill="#f98500"/>
        <path id="Path_230" data-name="Path 230" d="M65.085,228.288H78.644v4.746H65.085Z" fill="#f98500"/>
        <path id="Path_231" data-name="Path 231" d="M43.39,242.525H56.949v4.746H43.39Z" fill="#f98500"/>
      </g>
      <path id="Path_232" data-name="Path 232" d="M24.407,256.763H37.966v4.746H24.407Z" fill="#ffb531"/>
      <path id="Path_233" data-name="Path 233" d="M21.695,247.271H35.254v4.746H21.695Z" fill="#ffb531"/>
      <path id="Path_234" data-name="Path 234" d="M65.085,261.509H78.644v4.745H65.085Z" fill="#ffb531"/>
      <path id="Path_235" data-name="Path 235" d="M0,256.763H13.559v4.746H0Z" fill="#ffb531"/>
      <path id="Path_236" data-name="Path 236" d="M43.39,256.763H56.949v4.746H43.39Z" fill="#ffb531"/>
      <path id="Path_237" data-name="Path 237" d="M62.373,252.017H75.932v4.746H62.373Z" fill="#ffb531"/>
      <path id="Path_238" data-name="Path 238" d="M40.678,247.271H54.237v4.746H40.678Z" fill="#ffb531"/>
      <path id="Path_239" data-name="Path 239" d="M65.085,242.525H78.644v4.746H65.085Z" fill="#ffb531"/>
      <path id="Path_240" data-name="Path 240" d="M62.373,233.034H75.932v4.746H62.373Z" fill="#ffb531"/>
      <path id="Path_241" data-name="Path 241" d="M65.085,223.542H78.644v4.746H65.085Z" fill="#ffb531"/>
      <path id="Path_242" data-name="Path 242" d="M40.678,237.78H54.237v4.745H40.678Z" fill="#ffb531"/>
      <path id="Path_243" data-name="Path 243" d="M79.4,201.2a1.525,1.525,0,0,0-1.265-.119l-6.78,2.373,1.009,2.2,2.971-1.04-7.688,10.932-4.22-4.616a1.385,1.385,0,0,0-1.108-.446,1.412,1.412,0,0,0-1.069.513l-14.06,17.9-8.346-6.26a1.483,1.483,0,0,0-1-.281,1.422,1.422,0,0,0-.93.43L25.738,234.745l-7.082-7.228a1.458,1.458,0,0,0-1.157-.409,1.381,1.381,0,0,0-1.049.592L5.6,244.31l2.355,1.177,9.9-15.147,6.884,7.024a1.515,1.515,0,0,0,1.044.416,1.437,1.437,0,0,0,1.034-.436l11.325-12.111,8.438,6.328a1.491,1.491,0,0,0,1.058.276,1.393,1.393,0,0,0,.943-.505l13.875-17.665,4.282,4.685a1.477,1.477,0,0,0,1.143.442,1.393,1.393,0,0,0,1.071-.562l8.336-11.854V209.3H80v-7.119A1.155,1.155,0,0,0,79.4,201.2Z" fill="#7eb457"/>
      <path id="Path_244" data-name="Path 244" d="M0,266.254H78.644V271H0Z" fill="#b0564c"/>
    </g>
    <g id="Group_90" data-name="Group 90" transform="translate(251 -174)">
      <path id="Path_245" data-name="Path 245" d="M41.2,286H18.8a1.072,1.072,0,0,1-.574-1.885,13.462,13.462,0,0,0,3.656-5.106A18.45,18.45,0,0,0,23.3,272.8H36.7a18.462,18.462,0,0,0,1.418,6.21,13.472,13.472,0,0,0,3.656,5.106A1.072,1.072,0,0,1,41.2,286Z" fill="#88a5a0"/>
      <path id="Path_246" data-name="Path 246" d="M37.642,277.753A18.251,18.251,0,0,1,36.7,272.8H23.3a18.232,18.232,0,0,1-.944,4.954Z" fill="#718987"/>
      <path id="Path_247" data-name="Path 247" d="M60,230.937v36.071H0V230.937A4.709,4.709,0,0,1,4.444,226h51.11A4.709,4.709,0,0,1,60,230.937Z" fill="#dcf9f7"/>
      <rect id="Rectangle_1" data-name="Rectangle 1" width="59.999" height="2.954" transform="translate(0 264.054)" fill="#b0d1cf"/>
      <path id="Path_248" data-name="Path 248" d="M15.408,226v41.008H0V230.937A4.709,4.709,0,0,1,4.444,226Z" fill="#5089dd"/>
      <rect id="Rectangle_2" data-name="Rectangle 2" width="15.408" height="2.954" transform="translate(0 264.054)" fill="#2358c1"/>
      <path id="Path_249" data-name="Path 249" d="M58.033,275.339H1.967A2.085,2.085,0,0,1,0,273.154v-7.047H60v7.047A2.085,2.085,0,0,1,58.033,275.339Z" fill="#88a5a0"/>
      <ellipse id="Ellipse_29" data-name="Ellipse 29" cx="1.349" cy="1.498" rx="1.349" ry="1.498" transform="translate(28.651 269.225)" fill="#dcf9f7"/>
      <g id="Group_87" data-name="Group 87">
        <path id="Path_250" data-name="Path 250" d="M5.933,239.959a.959.959,0,0,1-.905-1.005v-.205a.959.959,0,0,1,.905-1,.959.959,0,0,1,.9,1v.205A.959.959,0,0,1,5.933,239.959Z" fill="#14c4bb"/>
        <path id="Path_251" data-name="Path 251" d="M8.786,239.959a.959.959,0,0,1-.905-1.005v-.205a.959.959,0,0,1,.905-1,.959.959,0,0,1,.906,1v.205A.959.959,0,0,1,8.786,239.959Z" fill="#14c4bb"/>
      </g>
      <g id="Group_88" data-name="Group 88">
        <path id="Path_252" data-name="Path 252" d="M9.505,243.672H5.214a1.011,1.011,0,0,1,0-2.011H9.505a1.011,1.011,0,0,1,0,2.011Z" fill="#2358c1"/>
        <path id="Path_253" data-name="Path 253" d="M9.505,246.675H5.214a1.011,1.011,0,0,1,0-2.011H9.505a1.011,1.011,0,0,1,0,2.011Z" fill="#2358c1"/>
        <path id="Path_254" data-name="Path 254" d="M9.505,249.679H5.214a1.011,1.011,0,0,1,0-2.011H9.505a1.011,1.011,0,0,1,0,2.011Z" fill="#2358c1"/>
      </g>
      <g id="Group_89" data-name="Group 89">
        <path id="Path_255" data-name="Path 255" d="M26.119,243.446a2.877,2.877,0,0,1-2.712-3.012v-2.6a2.878,2.878,0,0,1,2.712-3.013,2.878,2.878,0,0,1,2.712,3.013v2.6A2.877,2.877,0,0,1,26.119,243.446Zm0-6.614a.956.956,0,0,0-.9,1v2.6a.906.906,0,1,0,1.8,0v-2.6A.956.956,0,0,0,26.119,236.832Z" fill="#5089dd"/>
        <path id="Path_256" data-name="Path 256" d="M40.5,243.446a2.877,2.877,0,0,1-2.712-3.012v-2.6a2.727,2.727,0,1,1,5.424,0v2.6A2.877,2.877,0,0,1,40.5,243.446Zm0-6.614a.956.956,0,0,0-.9,1v2.6a.906.906,0,1,0,1.8,0v-2.6A.956.956,0,0,0,40.5,236.832Z" fill="#5089dd"/>
        <path id="Path_257" data-name="Path 257" d="M31.457,243.243a.961.961,0,0,1-.906-1.006v-6.411a.911.911,0,1,1,1.811,0v6.411A.96.96,0,0,1,31.457,243.243Z" fill="#5089dd"/>
        <path id="Path_258" data-name="Path 258" d="M35.064,243.243a.961.961,0,0,1-.906-1.006v-6.411a.911.911,0,1,1,1.811,0v6.411A.96.96,0,0,1,35.064,243.243Z" fill="#5089dd"/>
        <path id="Path_259" data-name="Path 259" d="M45.892,243.243a.961.961,0,0,1-.906-1.006v-6.411a.911.911,0,1,1,1.811,0v6.411A.96.96,0,0,1,45.892,243.243Z" fill="#5089dd"/>
        <path id="Path_260" data-name="Path 260" d="M49.5,243.243a.96.96,0,0,1-.905-1.006v-6.411a.911.911,0,1,1,1.811,0v6.411A.96.96,0,0,1,49.5,243.243Z" fill="#5089dd"/>
        <path id="Path_261" data-name="Path 261" d="M47.938,252.853a2.877,2.877,0,0,1-2.712-3.012v-2.6a2.727,2.727,0,1,1,5.424,0v2.6A2.877,2.877,0,0,1,47.938,252.853Zm0-6.614a.956.956,0,0,0-.9,1v2.6a.906.906,0,1,0,1.8,0v-2.6A.956.956,0,0,0,47.938,246.239Z" fill="#5089dd"/>
        <path id="Path_262" data-name="Path 262" d="M31.7,252.65a.959.959,0,0,1-.9-1.006v-6.411a.91.91,0,1,1,1.811,0v6.411A.96.96,0,0,1,31.7,252.65Z" fill="#5089dd"/>
        <path id="Path_263" data-name="Path 263" d="M35.31,252.65a.959.959,0,0,1-.905-1.006v-6.411a.91.91,0,1,1,1.811,0v6.411A.96.96,0,0,1,35.31,252.65Z" fill="#5089dd"/>
        <path id="Path_264" data-name="Path 264" d="M24.562,252.65a.96.96,0,0,1-.906-1.006v-6.411a.91.91,0,1,1,1.811,0v6.411A.959.959,0,0,1,24.562,252.65Z" fill="#5089dd"/>
        <path id="Path_265" data-name="Path 265" d="M28.169,252.65a.96.96,0,0,1-.906-1.006v-6.411a.91.91,0,1,1,1.811,0v6.411A.959.959,0,0,1,28.169,252.65Z" fill="#5089dd"/>
        <path id="Path_266" data-name="Path 266" d="M42.543,252.853a.96.96,0,0,1-.906-1v-6.411a.911.911,0,1,1,1.811,0v6.411A.959.959,0,0,1,42.543,252.853Z" fill="#5089dd"/>
        <path id="Path_267" data-name="Path 267" d="M38.936,252.853a.96.96,0,0,1-.906-1v-6.411a.911.911,0,1,1,1.811,0v6.411A.959.959,0,0,1,38.936,252.853Z" fill="#5089dd"/>
        <path id="Path_268" data-name="Path 268" d="M33.652,259.178a.96.96,0,0,1-.906-1.005v-.158a.91.91,0,1,1,1.811,0v.158A.959.959,0,0,1,33.652,259.178Z" fill="#5089dd"/>
        <path id="Path_269" data-name="Path 269" d="M36.9,259.178a.959.959,0,0,1-.9-1.005v-.158a.91.91,0,1,1,1.811,0v.158A.96.96,0,0,1,36.9,259.178Z" fill="#5089dd"/>
        <path id="Path_270" data-name="Path 270" d="M40.159,259.178a.959.959,0,0,1-.9-1.005v-.158a.91.91,0,1,1,1.81,0v.158A.959.959,0,0,1,40.159,259.178Z" fill="#5089dd"/>
      </g>
    </g>
    <g id="Group_94" data-name="Group 94" transform="translate(426.382 -184.779) rotate(23)">
      <path id="Path_271" data-name="Path 271" d="M68.722,248.166a.052.052,0,0,1-.023.053l-.848.566c-3.842,2.572-19.657,13.157-24.932,16.689h0l-1.706,1.143-.014.009a.017.017,0,0,1-.026-.013c0-.144.032-.875.074-2.025.233-6.354.932-25.5,1.07-29.246.012-.326.02-.533.023-.608a.675.675,0,0,1,.432-.6l.712-.279c3.612-1.4,15.752-6.066,19.352-7.444l1.015-.389a.342.342,0,0,1,.2-.014.334.334,0,0,1,.26.259l.2,1.011c.729,3.619,3.205,15.924,3.976,19.745C68.637,247.747,68.722,248.166,68.722,248.166Z" fill="#ffeb99"/>
      <path id="Path_272" data-name="Path 272" d="M68.722,248.166a.052.052,0,0,1-.023.053l-.848.566c-3.842,2.572-19.657,13.157-24.932,16.689h0l-1.706,1.143,22.842-40.608a.335.335,0,0,1,.26.259s.073.368.2,1.011c.729,3.619,3.205,15.924,3.976,19.745C68.637,247.747,68.722,248.166,68.722,248.166Z" fill="#ffda44"/>
      <path id="Path_273" data-name="Path 273" d="M18.074,278.362l2.112-1.934a.771.771,0,0,1,1.26.35l1.113,4.157-4.2-1.341A.725.725,0,0,1,18.074,278.362Z" fill="#5aaae7"/>
      <path id="Path_274" data-name="Path 274" d="M25.115,285.358l-2.838.622a.746.746,0,0,1-.9-.921l1.239-4.124,2.9,3.223A.728.728,0,0,1,25.115,285.358Z" fill="#1e81ce"/>
      <path id="Path_275" data-name="Path 275" d="M30.982,269.411l2.07-3.293a1.05,1.05,0,0,1,1.777.022l3.013,5.092-6.033-.309A.994.994,0,0,1,30.982,269.411Z" fill="#ff6243"/>
      <path id="Path_276" data-name="Path 276" d="M42.856,276.158l-3.521,1.812a1.03,1.03,0,0,1-1.516-.895l.1-5.863,5.026,3.238A.979.979,0,0,1,42.856,276.158Z" fill="#cd2a00"/>
      <path id="Path_277" data-name="Path 277" d="M23.753,275.194l2.357-3.108a1.05,1.05,0,0,1,1.769.171l2.546,5.323-5.983-.81A.99.99,0,0,1,23.753,275.194Z" fill="#ffde55"/>
      <path id="Path_278" data-name="Path 278" d="M34.98,282.906l-3.669,1.512a1.025,1.025,0,0,1-1.43-1.019l.621-5.833,4.718,3.645A.981.981,0,0,1,34.98,282.906Z" fill="#ffcd00"/>
      <g id="Group_91" data-name="Group 91">
        <ellipse id="Ellipse_30" data-name="Ellipse 30" cx="0.817" cy="1.464" rx="0.817" ry="1.464" transform="translate(53.735 235.174)" fill="#ff7956"/>
        <ellipse id="Ellipse_31" data-name="Ellipse 31" cx="1.454" cy="0.763" rx="1.454" ry="0.763" transform="translate(58.001 239.47) rotate(-19.962)" fill="#ff7956"/>
        <ellipse id="Ellipse_32" data-name="Ellipse 32" cx="0.817" cy="1.464" rx="0.817" ry="1.464" transform="translate(55.745 244.815) rotate(-2.549)" fill="#ff7956"/>
        <ellipse id="Ellipse_33" data-name="Ellipse 33" cx="1.508" cy="0.793" rx="1.508" ry="0.793" transform="matrix(0.926, -0.379, 0.379, 0.926, 49.358, 242.843)" fill="#ff7956"/>
      </g>
      <g id="Group_92" data-name="Group 92">
        <path id="Path_279" data-name="Path 279" d="M15.248,256.01a19.877,19.877,0,0,1-5.524-.675.915.915,0,0,1-.611-1.162.961.961,0,0,1,1.2-.59,21.259,21.259,0,0,0,8.271.359c4.53-.607,11.382-2.8,18.3-9.8a.979.979,0,0,1,1.349-.03.9.9,0,0,1,.03,1.3c-7.34,7.424-14.672,9.734-19.531,10.365A27.077,27.077,0,0,1,15.248,256.01Z" fill="#b3d8f4"/>
        <path id="Path_280" data-name="Path 280" d="M20.158,260.971a.945.945,0,0,1-.945-.8.929.929,0,0,1,.818-1.037,30,30,0,0,0,12.739-5.013.975.975,0,0,1,1.328.227.9.9,0,0,1-.235,1.283,31.95,31.95,0,0,1-13.576,5.329A.957.957,0,0,1,20.158,260.971Z" fill="#b3d8f4"/>
      </g>
      <g id="Group_93" data-name="Group 93">
        <path id="Path_281" data-name="Path 281" d="M65.655,232.935q-.2.009-.408.009a11.022,11.022,0,0,1-8.661-4.134l7.262-2.787a.346.346,0,0,1,.465.245C64.314,226.274,64.9,229.213,65.655,232.935Z" fill="#ff7956"/>
        <path id="Path_282" data-name="Path 282" d="M50.695,260.268l-9.5,6.358a.016.016,0,0,1-.025-.014s.178-4.882.4-10.851c.06,0,.121,0,.182,0A11.007,11.007,0,0,1,50.695,260.268Z" fill="#ff7956"/>
        <path id="Path_283" data-name="Path 283" d="M68.722,248.166a.052.052,0,0,1-.023.053l-5.976,4a10.226,10.226,0,0,1-.411-2.873,10.431,10.431,0,0,1,4.879-8.778C68.028,244.724,68.721,248.166,68.722,248.166Z" fill="#ff7956"/>
        <path id="Path_284" data-name="Path 284" d="M49.818,231.41a10.594,10.594,0,0,1-7.72,9.845c.115-3.133.2-5.573.239-6.521a.675.675,0,0,1,.433-.6C43.794,233.732,46.587,232.655,49.818,231.41Z" fill="#ff7956"/>
      </g>
      <path id="Path_285" data-name="Path 285" d="M68.492,247.024l-11.668-6.143,7.692-13.6c-.13-.643-.2-1.011-.2-1.011a.345.345,0,0,0-.464-.245l-1.015.389L55.149,240l-11.667-6.144-.712.279a.676.676,0,0,0-.433.6c0,.075-.01.282-.023.608l11.92,6.275c-14.153,25.03-16.263,33.712-32.605,38.682a43.988,43.988,0,0,1-11.938,1.919.922.922,0,1,0-.028,1.843h.123a45.631,45.631,0,0,0,12.356-1.987,38.344,38.344,0,0,0,10.647-5.011,31.018,31.018,0,0,0,10.128-11.59h0L55.909,242.5l11.942,6.286.848-.566a.052.052,0,0,0,.023-.053S68.637,247.747,68.492,247.024Z" fill="#ff9811"/>
    </g>
    <g id="Group_96" data-name="Group 96" transform="translate(284.36 -232.839)" opacity="0.26">
      <path id="Path_286" data-name="Path 286" d="M53.64,255.108c0,3.922-4.461,3.7-10,3.7s-10,.193-10-3.7c0-3.922,4.461-10.449,10-10.449C49.179,244.691,53.64,251.218,53.64,255.108Z" fill="#f2b233"/>
      <path id="Path_287" data-name="Path 287" d="M43.64,244.691c5.539,0,10,6.527,10,10.449s-4.461,3.7-10,3.7" fill="#dd981d"/>
      <path id="Path_288" data-name="Path 288" d="M38.77,240.641c0-1.9,2.193-1.8,4.87-1.8s4.87-.1,4.87,1.8-2.193,5.079-4.87,5.079S38.77,242.537,38.77,240.641Z" fill="#f2b233"/>
      <path id="Path_289" data-name="Path 289" d="M43.64,238.84c2.677,0,4.87-.1,4.87,1.8s-2.193,5.079-4.87,5.079" fill="#dd981d"/>
      <path id="Path_290" data-name="Path 290" d="M47.915,245.045a.626.626,0,0,1-.669.579H40.034a.626.626,0,0,1-.669-.579v-.161a.626.626,0,0,1,.669-.578h7.249a.626.626,0,0,1,.669.578v.161Z" fill="#04af76"/>
      <path id="Path_291" data-name="Path 291" d="M39.923,244.338h7.36a.626.626,0,0,1,.669.578v.161c0,.322-.371.579-.743.579" fill="#008c61"/>
      <ellipse id="Ellipse_34" data-name="Ellipse 34" cx="4.461" cy="3.858" rx="4.461" ry="3.858" transform="translate(39.179 248.614)" fill="#04af76"/>
      <path id="Path_292" data-name="Path 292" d="M40.48,249.739a4.972,4.972,0,0,1,6.32,0,3.5,3.5,0,0,1,0,5.465" fill="#008c61"/>
      <path id="Path_293" data-name="Path 293" d="M43.268,255.59v-.8a3.556,3.556,0,0,1-1.487-.321L42,253.6a3.566,3.566,0,0,0,1.413.321c.483,0,.818-.161.818-.45s-.26-.45-.93-.643c-.929-.257-1.524-.643-1.524-1.35,0-.643.335-1.157,1.45-1.318v-.675h.744v.643a2.742,2.742,0,0,1,1.264.257l-.224.836a2.81,2.81,0,0,0-1.226-.257c-.558,0-.744.192-.744.417,0,.258.3.386,1.041.643,1,.322,1.413.708,1.413,1.383s-.409,1.222-1.524,1.382v.8Z" fill="#fff6e1"/>
      <g id="Group_95" data-name="Group 95">
        <path id="Path_294" data-name="Path 294" d="M43.64,249.482v1.479h.186a2.815,2.815,0,0,1,1.227.257l.223-.836a2.477,2.477,0,0,0-1.264-.257v-.643Z" fill="#ffeebd"/>
        <path id="Path_295" data-name="Path 295" d="M44.123,251.989c-.186-.064-.371-.128-.483-.16v1.093c.372.16.6.321.6.546,0,.257-.223.386-.6.45v1.672h.372v-.836c1.115-.161,1.524-.707,1.524-1.382S45.127,252.311,44.123,251.989Z" fill="#ffeebd"/>
      </g>
    </g>
    <g id="Group_98" data-name="Group 98" transform="translate(392.999 -212.984)">
      <path id="Path_296" data-name="Path 296" d="M94,260.579a9.572,9.572,0,0,1-9.653,9.491H34.863a10.657,10.657,0,0,1-2.9-20.964l0-.006a18.945,18.945,0,0,1,13.378-23.406,19.357,19.357,0,0,1,23.811,13.15,18.672,18.672,0,0,1,.714,4.742,8.539,8.539,0,0,1,2.39-.713,8.652,8.652,0,0,1,1.235-.089,8.376,8.376,0,0,1,8.448,8.3h2.414A9.574,9.574,0,0,1,94,260.578Z" fill="#3ea7ff"/>
      <path id="Path_297" data-name="Path 297" d="M31.961,249.1a18.678,18.678,0,0,0,1.695,4.064l-2.11,1.15a20.934,20.934,0,0,1-1.835-4.324,11.018,11.018,0,0,1,2.247-.888l0-.006Z" fill="#2b7cd4"/>
      <path id="Path_298" data-name="Path 298" d="M72.277,243.97a21.07,21.07,0,0,1-.381,4l-2.372-.442a18.814,18.814,0,0,0,.339-3.559c0-.127,0-.256,0-.384a8.539,8.539,0,0,1,2.39-.713C72.268,243.236,72.278,243.6,72.277,243.97Z" fill="#2b7cd4"/>
      <path id="Path_299" data-name="Path 299" d="M38.484,265.325H69.863v9.491H38.484Z" fill="#ccc"/>
      <path id="Path_300" data-name="Path 300" d="M43.312,268.884h2.413v2.373H43.312Z" fill="#eb352f"/>
      <path id="Path_301" data-name="Path 301" d="M48.139,268.884h2.414v2.373H48.139Z" fill="#f2e368"/>
      <path id="Path_302" data-name="Path 302" d="M52.967,268.884h7.241v2.373H52.967Z" fill="#a0cc00"/>
      <path id="Path_303" data-name="Path 303" d="M38.484,255.834H69.863v9.491H38.484Z" fill="#e6e6e6"/>
      <path id="Path_304" data-name="Path 304" d="M43.312,259.393h2.413v2.373H43.312Z" fill="#eb352f"/>
      <path id="Path_305" data-name="Path 305" d="M48.139,259.393h2.414v2.373H48.139Z" fill="#f2e368"/>
      <path id="Path_306" data-name="Path 306" d="M52.967,259.393h7.241v2.373H52.967Z" fill="#a0cc00"/>
      <path id="Path_307" data-name="Path 307" d="M69.863,265.325h9.656v9.491H69.863Z" fill="#b3b3b3"/>
      <path id="Path_308" data-name="Path 308" d="M69.863,255.834h9.656v9.491H69.863Z" fill="#ccc"/>
      <g id="Group_97" data-name="Group 97">
        <path id="Path_309" data-name="Path 309" d="M57.794,274.816h2.414v9.49H57.794Z" fill="gray"/>
        <path id="Path_310" data-name="Path 310" d="M57.794,286.679h2.414v8.305H57.794Z" fill="gray"/>
        <path id="Path_311" data-name="Path 311" d="M80.726,294.984H78.312V286.7h-18.1v-2.373H79.519a1.2,1.2,0,0,1,1.207,1.187Z" fill="gray"/>
        <path id="Path_312" data-name="Path 312" d="M39.691,294.984H37.277v-9.466a1.2,1.2,0,0,1,1.207-1.187h19.31V286.7h-18.1Z" fill="gray"/>
      </g>
      <ellipse id="Ellipse_35" data-name="Ellipse 35" cx="2.389" cy="2.348" rx="2.389" ry="2.348" transform="translate(56.613 283.17)" fill="#3ea7ff"/>
    </g>
  </g>
</svg>
