<svg height="479pt" viewBox="-47 0 479 479.99806" width="479pt" xmlns="http://www.w3.org/2000/svg"><path d="m192.5 480c-105.863281 0-192-53.832031-192-120 0-66.171875 86.136719-120 192-120s192 53.828125 192 120c0 66.167969-86.136719 120-192 120zm0-224c-97.050781 0-176 46.652344-176 104 0 57.34375 78.949219 104 176 104 97.046875 0 176-46.65625 176-104 0-57.347656-78.953125-104-176-104zm0 0" fill="#90b244"/><path d="m168.5 352c0 17.671875 14.328125 32 32 32s32-14.328125 32-32" fill="#898989"/><path d="m384.5 424c0 17.671875-14.328125 32-32 32-17.675781 0-32-14.328125-32-32 0-17.675781 14.324219-32 32-32 17.671875 0 32 14.324219 32 32zm0 0" fill="#39808c"/><path d="m80.5 296c0 17.671875-14.328125 32-32 32-17.675781 0-32-14.328125-32-32 0-17.675781 14.324219-32 32-32 17.671875 0 32 14.324219 32 32zm0 0" fill="#39808c"/><path d="m328.5 128c0-72.769531-60.730469-131.363281-134.273438-127.851562-66.0625 3.152343-119.894531 58.203124-121.679687 124.3125-1.191406 44.042968 19.894531 83.175781 52.785156 107.066406 16.839844 12.230468 27.167969 31.453125 27.167969 52.269531v68.203125h96v-66.84375c0-20.820312 9.382812-40.925781 26.328125-53.03125 32.480469-23.191406 53.671875-61.167969 53.671875-104.125zm0 0" fill="#e8c14c"/><path d="m296.5 144v-32h-17.609375c-2-9.867188-5.992187-18.953125-11.261719-27.136719l12.871094-12.863281-24-24-12.863281 12.863281c-8.1875-5.265625-17.273438-9.257812-27.136719-11.257812v-17.605469h-32v17.605469c-9.871094 2.007812-19.058594 5.871093-27.242188 11.152343l-12.757812-12.757812-24 24 12.757812 12.757812c-5.277343 8.191407-9.144531 17.367188-11.152343 27.242188h-17.605469v32h17.605469c2 9.863281 5.992187 18.949219 11.265625 27.132812l-12.871094 12.867188 24 24 12.863281-12.867188c8.183594 5.273438 17.265625 9.257813 27.136719 11.265626v17.601562h32v-17.609375c9.871094-2.007813 19.054688-5.871094 27.238281-11.152344l12.761719 12.761719 24-24-12.761719-12.761719c5.28125-8.191406 9.144531-17.367187 11.152344-27.238281zm0 0" fill="#90b244"/><path d="m248.5 128c0 26.507812-21.492188 48-48 48-26.511719 0-48-21.492188-48-48 0-26.511719 21.488281-48 48-48 26.507812 0 48 21.488281 48 48zm0 0" fill="#efefef"/><g fill="#898989"><path d="m128.5 280h144v16h-144zm0 0"/><path d="m128.5 312h144v16h-144zm0 0"/></g></svg>