<svg id="Layer_1" data-name="Layer 1" xmlns="http://www.w3.org/2000/svg" viewBox="0 0 349.5 145"><defs><style>.cls-1,.cls-8{fill:#ffb900;}.cls-1,.cls-2,.cls-3,.cls-4,.cls-7{stroke:#c6cbef;}.cls-1,.cls-2,.cls-3,.cls-4,.cls-5,.cls-6,.cls-7{stroke-miterlimit:10;}.cls-11,.cls-2{fill:#f25022;}.cls-10,.cls-3{fill:#7fba00;}.cls-4,.cls-7{fill:#00a4ef;}.cls-5{fill:none;stroke:#000;}.cls-6,.cls-9{fill:#207561;stroke:#00faac;}.cls-7{font-size:99.6px;font-family:MyriadPro-Regular, Myriad Pro;}</style></defs><title>Logo</title><path class="cls-1" d="M359.5,315v45l-45,.5c-26,0-26-36-26-36l35-37S359.5,287.5,359.5,315Z" transform="translate(-216 -216)"/><path class="cls-2" d="M288.5,252.5l-36,36s-36,0-36-27v-45h45C287.5,216.5,288.5,252.5,288.5,252.5Z" transform="translate(-216 -216)"/><path class="cls-3" d="M359.5,216.5v45c0,27-36,26-36,26l-35-35c0-36,26-36,26-36Z" transform="translate(-216 -216)"/><path class="cls-4" d="M288.5,324.5c0,36-27,36-27,36h-45v-45s0-27,36-27Z" transform="translate(-216 -216)"/><path class="cls-5" d="M250.5,278.5" transform="translate(-216 -216)"/><polygon class="cls-6" points="107.5 71.5 72.5 108.5 36.5 72.5 72.5 36.5 107.5 71.5"/><text x="-216" y="-216"/><text class="cls-7" transform="translate(164.86 101.52) scale(0.99 1)">S<tspan class="cls-8" x="49.1" y="0">p</tspan><tspan class="cls-9" x="105.77" y="0">l</tspan><tspan class="cls-10" x="129.28" y="0">i</tspan><tspan class="cls-11" x="152.58" y="0">t</tspan></text></svg>