<svg height="472pt" viewBox="0 -3 472 471" width="472pt" xmlns="http://www.w3.org/2000/svg"><path d="m141.679688 104.5c-1.097657 3.6875-2.574219 7.253906-4.398438 10.640625l24.238281 24.238281-22.640625 22.640625-24.238281-24.238281c-3.386719 1.824219-6.953125 3.300781-10.640625 4.398438v34.320312h-32v-34.320312c-3.6875-1.097657-7.253906-2.574219-10.640625-4.398438l-24.238281 24.238281-22.640625-22.640625 24.238281-24.238281c-1.824219-3.386719-3.300781-6.953125-4.398438-10.640625h-34.320312v-32h34.320312c1.097657-3.6875 2.574219-7.253906 4.398438-10.640625l-24.238281-24.238281 22.640625-22.640625 24.238281 24.238281c3.386719-1.824219 6.953125-3.300781 10.640625-4.398438v-34.320312h32v34.320312c3.6875 1.097657 7.253906 2.574219 10.640625 4.398438l24.238281-24.238281 22.640625 22.640625-24.238281 24.238281c1.824219 3.386719 3.300781 6.953125 4.398438 10.640625h34.320312v32zm0 0" fill="#ed1c24"/><path d="m112 88.5c0 13.253906-10.746094 24-24 24s-24-10.746094-24-24 10.746094-24 24-24 24 10.746094 24 24zm0 0" fill="#f1f2f2"/><path d="m429.679688 392.5c-1.097657 3.6875-2.574219 7.253906-4.398438 10.640625l24.238281 24.238281-22.640625 22.640625-24.238281-24.238281c-3.386719 1.824219-6.953125 3.300781-10.640625 4.398438v34.320312h-32v-34.320312c-3.6875-1.097657-7.253906-2.574219-10.640625-4.398438l-24.238281 24.238281-22.640625-22.640625 24.238281-24.238281c-1.824219-3.386719-3.300781-6.953125-4.398438-10.640625h-34.320312v-32h34.320312c1.097657-3.6875 2.574219-7.253906 4.398438-10.640625l-24.238281-24.238281 22.640625-22.640625 24.238281 24.238281c3.386719-1.824219 6.953125-3.300781 10.640625-4.398438v-34.320312h32v34.320312c3.6875 1.097657 7.253906 2.574219 10.640625 4.398438l24.238281-24.238281 22.640625 22.640625-24.238281 24.238281c1.824219 3.386719 3.300781 6.953125 4.398438 10.640625h34.320312v32zm0 0" fill="#b2fa09"/><path d="m400 376.5c0 13.253906-10.746094 24-24 24s-24-10.746094-24-24 10.746094-24 24-24 24 10.746094 24 24zm0 0" fill="#f1f2f2"/><path d="m224 352.5c0-61.855469-50.144531-112-112-112v112zm0 0" fill="#006df0"/><path d="m112 240.5c-50.691406.003906-95.058594 34.050781-108.175781 83.015625-13.117188 48.964844 8.285156 100.632813 52.183593 125.980469 43.898438 25.34375 99.347657 18.046875 135.191407-17.796875l-79.199219-79.199219zm0 0" fill="#ffcd00"/><path d="m120 464.179688c-2.640625.242187-5.28125.320312-8 .320312-61.855469 0-112-50.144531-112-112s50.144531-112 112-112v1.121094c-56.609375 8.183594-97.957031 57.707031-95.902344 114.871094 2.054688 57.160156 46.851563 103.589843 103.902344 107.6875zm0 0" fill="#ebbf00"/><path d="m112 352.5 79.199219 79.199219c21.039062-20.980469 32.84375-49.484375 32.800781-79.199219zm0 0" fill="#7ed63e"/><path d="m240 144.5h16v80h-16zm0 0" fill="#ffde55"/><path d="m224 144.5h16v80h-16zm0 0" fill="#ffcd00"/><path d="m288 96.5h16v128h-16zm0 0" fill="#cd2a00"/><path d="m304 96.5h16v128h-16zm0 0" fill="#ed1c24"/><path d="m368 48.5h16v176h-16zm0 0" fill="#7ed63e"/><path d="m352 48.5h16v176h-16zm0 0" fill="#5eac24"/><path d="m432 .5h16v224h-16zm0 0" fill="#006df0"/><path d="m416 .5h16v224h-16zm0 0" fill="#005ece"/><g fill="#ffcd00"><path d="m184 8.5h16v16h-16zm0 0"/><path d="m216 8.5h16v16h-16zm0 0"/><path d="m248 8.5h16v16h-16zm0 0"/><path d="m280 8.5h16v16h-16zm0 0"/><path d="m312 8.5h16v16h-16zm0 0"/><path d="m344 8.5h16v16h-16zm0 0"/><path d="m376 8.5h16v16h-16zm0 0"/></g><path d="m200 216.5h272v16h-272zm0 0" fill="#a7a9ac"/></svg>