<svg xmlns="http://www.w3.org/2000/svg" xmlns:xlink="http://www.w3.org/1999/xlink" width="495" height="130" viewBox="0 0 495 130">
  <defs>
    <clipPath id="clip-note-card">
      <rect width="495" height="130"/>
    </clipPath>
  </defs>
  <g id="note-card" clip-path="url(#clip-note-card)">
    <rect width="495" height="130" fill="#83b582"/>
    <g id="Group_2" data-name="Group 2" transform="translate(2 -161)">
      <path id="Path_1" data-name="Path 1" d="M20.318,243.217H6.042a6.109,6.109,0,0,1,0-12.217C10.666,231,19.646,235.467,20.318,243.217Z" fill="#9bb9c1"/>
      <path id="Path_2" data-name="Path 2" d="M45.22,249.03c-1.378,8.282-5.195,16.921-5.78,24.072a20.608,20.608,0,0,0-.06,2.532S18.437,281,15.506,281a5.329,5.329,0,0,1-5.284-4.859l0-.023-.016-.273v-.027a20.349,20.349,0,0,1,.051-2.716c.584-7.151,4.4-15.79,5.781-24.072a23.2,23.2,0,0,0,.266-5.813,16.412,16.412,0,0,0-2-6.735C12.284,232.94,9.09,231,6.042,231H35.229c3.047,0,6.241,1.94,8.258,5.482,1.742,3.06,2.6,7.316,1.733,12.548Z" fill="#dfeaef"/>
      <path id="Path_3" data-name="Path 3" d="M43.487,236.482H14.3C12.284,232.94,9.09,231,6.042,231H35.229C38.276,231,41.47,232.94,43.487,236.482Z" fill="#d0e2e7"/>
      <path id="Path_4" data-name="Path 4" d="M39.38,275.634S18.437,281,15.506,281a5.329,5.329,0,0,1-5.284-4.859l0-.023-.016-.273v-.027a20.349,20.349,0,0,1,.051-2.716H39.44A20.608,20.608,0,0,0,39.38,275.634Z" fill="#d0e2e7"/>
      <g id="Group_1" data-name="Group 1">
        <path id="Path_5" data-name="Path 5" d="M40.479,241.167a3.251,3.251,0,0,1-2.524-1.266c-.5-.523-.791-.8-1.424-.8s-.924.273-1.424.8a3.149,3.149,0,0,1-5.048,0c-.5-.523-.791-.8-1.424-.8s-.924.273-1.424.795a3.147,3.147,0,0,1-5.047,0c-.5-.522-.791-.795-1.425-.795a.774.774,0,0,1,0-1.547,3.248,3.248,0,0,1,2.524,1.267c.5.523.791.8,1.424.8s.924-.273,1.424-.8a3.148,3.148,0,0,1,5.048,0c.5.523.791.8,1.424.8s.924-.273,1.424-.8a3.148,3.148,0,0,1,5.048,0c.5.523.791.8,1.425.8a.773.773,0,0,1,0,1.546Z" fill="#756e78"/>
        <path id="Path_6" data-name="Path 6" d="M40.479,247.6a3.251,3.251,0,0,1-2.524-1.266c-.5-.523-.791-.8-1.424-.8s-.924.273-1.424.8a3.149,3.149,0,0,1-5.048,0c-.5-.523-.791-.8-1.424-.8s-.924.273-1.424.8a3.148,3.148,0,0,1-5.047,0c-.5-.523-.791-.8-1.425-.8a.773.773,0,0,1,0-1.546,3.247,3.247,0,0,1,2.524,1.266c.5.523.791.8,1.424.8s.924-.273,1.424-.8a3.149,3.149,0,0,1,5.048,0c.5.523.791.8,1.424.8s.924-.273,1.424-.8a3.149,3.149,0,0,1,5.048,0c.5.523.791.8,1.425.8a.773.773,0,0,1,0,1.546Z" fill="#756e78"/>
        <path id="Path_7" data-name="Path 7" d="M39.637,254.038a3.249,3.249,0,0,1-2.524-1.266c-.5-.523-.791-.8-1.424-.8s-.924.273-1.425.8a3.148,3.148,0,0,1-5.047,0c-.5-.523-.791-.8-1.424-.8s-.924.273-1.425.8a3.148,3.148,0,0,1-5.047,0c-.5-.523-.791-.8-1.424-.8a.773.773,0,0,1,0-1.546,3.251,3.251,0,0,1,2.524,1.266c.5.523.791.8,1.424.8s.924-.273,1.424-.8a3.148,3.148,0,0,1,5.047,0c.5.523.791.8,1.424.8s.925-.273,1.425-.8a3.149,3.149,0,0,1,5.048,0c.5.523.791.8,1.424.8a.773.773,0,0,1,0,1.546Z" fill="#756e78"/>
        <path id="Path_8" data-name="Path 8" d="M38.65,260.473a3.247,3.247,0,0,1-2.524-1.266c-.5-.523-.791-.8-1.425-.8s-.924.273-1.424.8a3.149,3.149,0,0,1-5.048,0c-.5-.523-.791-.8-1.424-.8s-.924.273-1.424.8a3.148,3.148,0,0,1-5.047,0c-.5-.523-.791-.8-1.424-.8a.773.773,0,0,1,0-1.546,3.247,3.247,0,0,1,2.523,1.266c.5.523.791.8,1.424.8s.924-.273,1.425-.8a3.148,3.148,0,0,1,5.047,0c.5.523.791.8,1.424.8s.924-.273,1.424-.8a3.149,3.149,0,0,1,5.048,0c.5.523.791.8,1.425.8a.773.773,0,0,1,0,1.546Z" fill="#756e78"/>
      </g>
      <path id="Path_9" data-name="Path 9" d="M50,275.634A5.336,5.336,0,0,1,44.693,281H15.506a5.336,5.336,0,0,0,5.307-5.366Z" fill="#9bb9c1"/>
      <path id="Path_10" data-name="Path 10" d="M44.371,254.568c3.778-5,7.123-13.384,4.8-15.178s-9.441,3.676-13.219,8.679-4.957,10.514-2.631,12.309,7.274-.807,11.052-5.81Z" fill="#1dd08d"/>
      <path id="Path_11" data-name="Path 11" d="M33.319,260.378c-2.325-1.795-1.148-7.3,2.631-12.309s10.893-10.474,13.218-8.68c-.94-.725-6.932,5.612-10.71,10.615S32.379,259.652,33.319,260.378Z" fill="#02b07b"/>
      <path id="Path_12" data-name="Path 12" d="M35.545,263.588l0,0a7.691,7.691,0,0,0-1.55,4.75h0a1.645,1.645,0,0,1-1.123,1.59l-7.052,2.327a1.413,1.413,0,0,1-.56.067,1.431,1.431,0,0,1-1.3-1.5l.362-7.49a1.643,1.643,0,0,1,1.221-1.515h0a7.561,7.561,0,0,0,4.125-2.762v0Z" fill="#fba615"/>
      <path id="Path_13" data-name="Path 13" d="M24.514,272.036a.813.813,0,0,1-.15-.9l1.825-6.361a2.723,2.723,0,0,1,1.2-1.531h0a11.794,11.794,0,0,0,3.562-3.2l0,0-1.284-.991,0,0a7.55,7.55,0,0,1-4.125,2.763h0a1.642,1.642,0,0,0-1.222,1.515l-.363,7.49a1.431,1.431,0,0,0,.556,1.211Z" fill="#fc840d"/>
      <path id="Path_14" data-name="Path 14" d="M28.517,268.011l-3.26,4.315a1.43,1.43,0,0,1-1.215-.939l3.258-4.314Z" fill="#544f57"/>
      <ellipse id="Ellipse_1" data-name="Ellipse 1" cx="1.638" cy="1.656" rx="1.638" ry="1.656" transform="translate(26.96 264.99)" fill="#544f57"/>
      <path id="Path_15" data-name="Path 15" d="M29.749,257.623a1.255,1.255,0,0,1,1.772-.24l5.13,3.959a1.288,1.288,0,0,1,.238,1.791,1.255,1.255,0,0,1-1.772.24l-5.13-3.959a1.288,1.288,0,0,1-.238-1.791Z" fill="#544f57"/>
      <path id="Path_16" data-name="Path 16" d="M31.773,259.185a1.254,1.254,0,0,1,1.771-.24l3.107,2.4a1.288,1.288,0,0,1,.238,1.791,1.255,1.255,0,0,1-1.772.24l-3.107-2.4a1.285,1.285,0,0,1-.237-1.79Z" fill="#756e78"/>
    </g>
    <g id="Group_3" data-name="Group 3" transform="translate(121.455 -214.833) rotate(21)">
      <path id="Path_17" data-name="Path 17" d="M60.6,241.7,42.737,261.032l6.821-31.288h0Z" transform="translate(1.422)" fill="#9ad14b"/>
      <path id="Path_18" data-name="Path 18" d="M71.645,229.745h0L60.6,241.7,49.559,229.745Z" transform="translate(2.592)" fill="#2ba5f7"/>
      <path id="Path_19" data-name="Path 19" d="M71.645,229.746v23.9L60.6,241.7Z" transform="translate(2.592)" fill="#f95428"/>
      <path id="Path_20" data-name="Path 20" d="M60.6,241.7,71.645,253.65l-28.908,7.384h0Z" transform="translate(2.592 1.605)" fill="#f7b239"/>
      <path id="Path_21" data-name="Path 21" d="M74.161,257.395a.9.9,0,0,1-.668-.3L48.92,230.5l-.03-.031-2.515-2.723a1.083,1.083,0,0,1,0-1.445.894.894,0,0,1,1.335,0l2.486,2.692.03.031,24.6,26.628a1.081,1.081,0,0,1,0,1.445A.9.9,0,0,1,74.161,257.395Z" transform="translate(2.592)" fill="#995c0d"/>
      <path id="Path_22" data-name="Path 22" d="M32.765,286a.575.575,0,0,1-.244-.053.7.7,0,0,1-.337-.892A5.239,5.239,0,0,0,32,280.846a4.558,4.558,0,0,0-3.134-2.5l-.065-.014a4.856,4.856,0,0,1-3.7-4.842,5.308,5.308,0,0,1,.258-1.632,4.529,4.529,0,0,1,5.247-3.2L46.491,272.3a2.876,2.876,0,0,0,.638.072,3.058,3.058,0,0,0,2.835-2.07,3.546,3.546,0,0,0-.14-2.814,3.089,3.089,0,0,0-2.089-1.681L43.5,264.88a2.449,2.449,0,0,1-1.8-1.774,2.677,2.677,0,0,1,.581-2.54.607.607,0,0,1,.458-.214.656.656,0,0,1,.63.681h0a.711.711,0,0,1-.184.482,1.252,1.252,0,0,0-.279,1.2,1.132,1.132,0,0,0,.844.831l4.239.933a4.358,4.358,0,0,1,2.948,2.372,5.007,5.007,0,0,1,.2,3.97,4.317,4.317,0,0,1-4,2.921,4.016,4.016,0,0,1-.9-.1L30.349,270a3.277,3.277,0,0,0-3.8,2.315,3.817,3.817,0,0,0-.188,1.181A3.515,3.515,0,0,0,29.04,277l.064.014a5.822,5.822,0,0,1,4.007,3.193,6.7,6.7,0,0,1,.234,5.378A.631.631,0,0,1,32.765,286Z" transform="translate(0 4.157)" fill="#2ba5f7"/>
      <path id="Path_23" data-name="Path 23" d="M42.737,262.055a.9.9,0,0,1-.668-.3,1.081,1.081,0,0,1,0-1.445l17.866-19.336,11.013-11.92.029-.032,2.158-2.335a.9.9,0,0,1,1.336,0,1.084,1.084,0,0,1,0,1.446l-2.13,2.3-.029.032L43.4,261.755A.9.9,0,0,1,42.737,262.055Z" transform="translate(2.592)" fill="#995c0d"/>
    </g>
    <g id="Group_4" data-name="Group 4" transform="translate(217.956 -13.086) rotate(68)">
      <path id="Path_24" data-name="Path 24" d="M56.133,176.451c-1.076,5.2-2.732,10.149-4.14,15.093a.588.588,0,0,1-1.076.26,35.5,35.5,0,0,1-3.891-7.547h-.083c-10.1-1.171-19.87,12.361-26.824,22.25C12.088,217.828,4.8,231.621,1.9,248.146c-.166,2.082-.331,4.294-.331,6.507,0,1.04-.91,1.04-.993,0V253.48c-.331,0-.58-.389-.58-1.041.083-1.431.331-2.862.5-4.294.663-35.261,23.017-69.223,44.873-71.434-.745-2.082-1.407-4.294-2.235-6.377-.415-.91.248-1.822.828-1.692,4.139.911,7.865,4.034,11.674,6.377A1.205,1.205,0,0,1,56.133,176.451Zm-11.095-5.2c.5,1.692.828,3.383,1.408,5.075a1.183,1.183,0,0,1-.331,1.3.821.821,0,0,1-.413.781c-19.788,5.2-35.849,26.413-41.81,55.17,3.892-11.321,9.852-21.21,15.731-29.537A99.331,99.331,0,0,1,33.448,187.9c3.891-3.513,8.776-6.766,13.246-4.554h0c-.248-1.042.745-1.561,1.076-.781,1.076,2.212,2.153,4.294,3.312,6.246,1.158-4.034,2.4-8.068,3.311-12.231C51.331,174.759,48.267,172.417,45.038,171.246Z" transform="translate(0 -168.631)" fill="#ff4ae3"/>
    </g>
    <g id="Group_6" data-name="Group 6" transform="translate(220.003 -187.004)">
      <path id="Path_25" data-name="Path 25" d="M24,230H72.032v49.83H24Z" fill="#65dcff"/>
      <path id="Path_26" data-name="Path 26" d="M41.371,242.207H54.657v6.1H41.371Z" fill="#3ea7ff"/>
      <path id="Path_27" data-name="Path 27" d="M28.085,252.376H40.349v8.136H28.085Z" fill="#3ea7ff"/>
      <g id="Group_5" data-name="Group 5">
        <path id="Path_28" data-name="Path 28" d="M53.635,251.36H64.878v2.033H53.635Z" fill="#57c1ff"/>
        <path id="Path_29" data-name="Path 29" d="M47.5,251.36h4.088v2.033H47.5Z" fill="#57c1ff"/>
        <path id="Path_30" data-name="Path 30" d="M43.415,255.427H64.878v2.034H43.415Z" fill="#57c1ff"/>
        <path id="Path_31" data-name="Path 31" d="M43.415,259.495H56.7v2.034H43.415Z" fill="#57c1ff"/>
        <path id="Path_32" data-name="Path 32" d="M51.591,264.58h2.044v2.034H51.591Z" fill="#57c1ff"/>
        <path id="Path_33" data-name="Path 33" d="M45.459,264.58h4.088v2.034H45.459Z" fill="#57c1ff"/>
        <path id="Path_34" data-name="Path 34" d="M43.415,268.647h7.154v2.034H43.415Z" fill="#57c1ff"/>
      </g>
      <path id="Path_35" data-name="Path 35" d="M28.085,265.6H40.349v8.135H28.085Z" fill="#3ea7ff"/>
      <path id="Path_36" data-name="Path 36" d="M24,230H72.032v8.135H24Z" fill="#3ea7ff"/>
      <ellipse id="Ellipse_2" data-name="Ellipse 2" cx="1.022" cy="1.017" rx="1.022" ry="1.017" transform="translate(27.063 233.055)" fill="#eb352f"/>
      <ellipse id="Ellipse_3" data-name="Ellipse 3" cx="1.022" cy="1.017" rx="1.022" ry="1.017" transform="translate(31.151 233.055)" fill="#f2e368"/>
      <ellipse id="Ellipse_4" data-name="Ellipse 4" cx="1.022" cy="1.017" rx="1.022" ry="1.017" transform="translate(35.239 233.055)" fill="#a0cc00"/>
      <path id="Path_37" data-name="Path 37" d="M67.944,238.139h4.088v41.7H67.944Z" fill="#a0eaff"/>
      <path id="Path_38" data-name="Path 38" d="M67.944,246.275h4.088v6.1H67.944Z" fill="#57c1ff"/>
      <path id="Path_39" data-name="Path 39" d="M75.1,277.8v-4.068H72.7a6.4,6.4,0,0,0-.246-.594l1.695-1.686-2.891-2.877-.4.393-1.3,1.294a6.247,6.247,0,0,0-.6-.246V267.63H64.878v2.386q-.3.108-.6.246l-1.695-1.687-2.891,2.877,1.695,1.686a5.8,5.8,0,0,0-.246.594h-2.4V277.8h2.4a5.782,5.782,0,0,0,.246.593l-1.695,1.687,2.891,2.877.519-.517,1.176-1.17a6.185,6.185,0,0,0,.6.245V283.9h4.088v-2.386q.3-.108.6-.245l1.695,1.687,2.891-2.877-1.695-1.687a6.269,6.269,0,0,0,.246-.593Zm-8.205.029a2.034,2.034,0,1,1,2.044-2.034,2.039,2.039,0,0,1-2.044,2.034Z" fill="gray"/>
      <path id="Path_40" data-name="Path 40" d="M66.922,287.969A12.261,12.261,0,0,1,54.755,277.3l1.224,1.219,1.446-1.438-3.066-3.051a1.027,1.027,0,0,0-1.446,0l-3.066,3.051,1.445,1.438,1.389-1.381a14.328,14.328,0,0,0,26.937,5.2l-1.813-.941A12.242,12.242,0,0,1,66.922,287.969Z" fill="#ff6f35"/>
      <path id="Path_41" data-name="Path 41" d="M82.552,274.03l-1.328,1.321a14.323,14.323,0,0,0-27.513-5.061l1.886.783a12.275,12.275,0,0,1,23.581,4.263l-1.313-1.306-1.445,1.438,3.066,3.051a1.026,1.026,0,0,0,1.445,0h0L84,275.468Z" fill="#ff6f35"/>
    </g>
    <g id="Group_8" data-name="Group 8" transform="translate(379.999 -174.984)">
      <path id="Path_42" data-name="Path 42" d="M84,260.494a8.2,8.2,0,0,1-8.274,8.135H33.312a9.134,9.134,0,0,1-2.491-17.969v-.005a16.237,16.237,0,0,1,11.467-20.062A16.591,16.591,0,0,1,62.7,241.864a16.037,16.037,0,0,1,.612,4.065,7.313,7.313,0,0,1,2.048-.612,7.511,7.511,0,0,1,1.059-.076,7.181,7.181,0,0,1,7.242,7.118h2.069A8.205,8.205,0,0,1,84,260.493Z" fill="#3ea7ff"/>
      <path id="Path_43" data-name="Path 43" d="M30.824,250.658a16,16,0,0,0,1.453,3.483l-1.809.987a17.989,17.989,0,0,1-1.572-3.707,9.4,9.4,0,0,1,1.925-.761v-.005Z" fill="#2b7cd4"/>
      <path id="Path_44" data-name="Path 44" d="M65.381,246.258a18.182,18.182,0,0,1-.327,3.429l-2.033-.378a16.2,16.2,0,0,0,.291-3.051c0-.109,0-.22,0-.329a7.313,7.313,0,0,1,2.048-.612C65.373,245.629,65.381,245.942,65.381,246.258Z" fill="#2b7cd4"/>
      <path id="Path_45" data-name="Path 45" d="M36.415,264.562h26.9V272.7h-26.9Z" fill="#ccc"/>
      <path id="Path_46" data-name="Path 46" d="M40.553,267.612h2.069v2.034H40.553Z" fill="#eb352f"/>
      <path id="Path_47" data-name="Path 47" d="M44.691,267.612H46.76v2.034H44.691Z" fill="#f2e368"/>
      <path id="Path_48" data-name="Path 48" d="M48.829,267.612h6.207v2.034H48.829Z" fill="#a0cc00"/>
      <path id="Path_49" data-name="Path 49" d="M36.415,256.427h26.9v8.135h-26.9Z" fill="#e6e6e6"/>
      <path id="Path_50" data-name="Path 50" d="M40.553,259.477h2.069v2.034H40.553Z" fill="#eb352f"/>
      <path id="Path_51" data-name="Path 51" d="M44.691,259.477H46.76v2.034H44.691Z" fill="#f2e368"/>
      <path id="Path_52" data-name="Path 52" d="M48.829,259.477h6.207v2.034H48.829Z" fill="#a0cc00"/>
      <path id="Path_53" data-name="Path 53" d="M63.312,264.562h8.276V272.7H63.312Z" fill="#b3b3b3"/>
      <path id="Path_54" data-name="Path 54" d="M63.312,256.427h8.276v8.135H63.312Z" fill="#ccc"/>
      <g id="Group_7" data-name="Group 7">
        <path id="Path_55" data-name="Path 55" d="M52.967,272.7h2.069v8.135H52.967Z" fill="gray"/>
        <path id="Path_56" data-name="Path 56" d="M52.967,282.866h2.069v7.118H52.967Z" fill="gray"/>
        <path id="Path_57" data-name="Path 57" d="M72.622,289.984H70.553v-7.1H55.036v-2.034H71.588a1.025,1.025,0,0,1,1.034,1.017Z" fill="gray"/>
        <path id="Path_58" data-name="Path 58" d="M37.45,289.984H35.381V281.87a1.025,1.025,0,0,1,1.034-1.017H52.967v2.034H37.45Z" fill="gray"/>
      </g>
      <ellipse id="Ellipse_5" data-name="Ellipse 5" cx="2.047" cy="2.013" rx="2.047" ry="2.013" transform="translate(51.954 279.857)" fill="#3ea7ff"/>
    </g>
    <g id="Group_9" data-name="Group 9" transform="matrix(0.616, -0.788, 0.788, 0.616, 175.993, -19.13)">
      <path id="Path_59" data-name="Path 59" d="M49.961,239.6c-.958-4.677-2.432-9.12-3.685-13.563a.522.522,0,0,0-.958-.234,32.017,32.017,0,0,0-3.463,6.782h-.074c-8.99,1.052-17.685-11.108-23.875-19.994C10.759,202.422,4.274,190.028,1.7,175.179c-.148-1.871-.3-3.859-.3-5.847,0-.935-.81-.935-.884,0v1.053c-.295,0-.516.35-.516.935.074,1.286.295,2.572.442,3.859.59,31.686,20.486,62.2,39.939,64.191-.663,1.871-1.252,3.859-1.989,5.73-.369.818.221,1.637.737,1.52,3.684-.819,7-3.625,10.39-5.73A1.087,1.087,0,0,0,49.961,239.6Zm-9.875,4.677c.443-1.52.737-3.04,1.253-4.56a1.069,1.069,0,0,0-.3-1.169.739.739,0,0,0-.368-.7c-17.612-4.677-31.907-23.735-37.213-49.576a106.856,106.856,0,0,0,14,26.542,89.032,89.032,0,0,0,12.306,14.5c3.463,3.157,7.811,6.08,11.79,4.092h0c-.221.936.663,1.4.958.7.958-1.988,1.916-3.859,2.948-5.613,1.031,3.625,2.137,7.25,2.947,10.991C45.687,241.124,42.96,243.229,40.086,244.281Z" fill="#22ff15"/>
    </g>
    <g id="Group_10" data-name="Group 10" transform="translate(359 4)" opacity="0.23">
      <path id="Path_60" data-name="Path 60" d="M9.94,18.533A5.253,5.253,0,0,1,14.736,15c2.89,0,4.97,2.687,5.232,5.889a6.354,6.354,0,0,1-.17,2.225,10.035,10.035,0,0,1-2.759,5L9.94,35,2.961,28.115a10.027,10.027,0,0,1-2.759-5,6.36,6.36,0,0,1-.17-2.226C.294,17.687,2.374,15,5.264,15A5.1,5.1,0,0,1,9.94,18.533Z" fill="#c03a2b"/>
      <path id="Path_61" data-name="Path 61" d="M2.4,21.99a.418.418,0,0,1-.4-.434,4.189,4.189,0,0,1,4-4.348.436.436,0,0,1,0,.869,3.353,3.353,0,0,0-3.2,3.479A.418.418,0,0,1,2.4,21.99Z" fill="#ed7161"/>
    </g>
    <g id="Group_17" data-name="Group 17" transform="translate(137.867 -164.134)" opacity="0.49">
      <g id="Group_11" data-name="Group 11">
        <path id="Path_62" data-name="Path 62" d="M22.633,259.062c3.25-3.249,7.5-5.123,7.5-9.121a3.941,3.941,0,0,0-7.5-1.749,3.941,3.941,0,0,0-7.5,1.749C15.133,254,19.571,255.876,22.633,259.062Z" fill="#66c6b9"/>
        <path id="Path_63" data-name="Path 63" d="M24.071,259.624a1.929,1.929,0,0,1-2.813,0c.313-.375.875-.687.875-1.187h1C23.133,258.937,23.758,259.187,24.071,259.624Z" fill="#66c6b9"/>
      </g>
      <path id="Path_64" data-name="Path 64" d="M28.2,248.317c.437.5.625,1.125.375,1.312s-.813,0-1.25-.562c-.438-.5-.625-1.125-.375-1.312C27.133,247.568,27.695,247.818,28.2,248.317Z" fill="#fff"/>
      <g id="Group_12" data-name="Group 12">
        <path id="Path_65" data-name="Path 65" d="M23.258,258.812H22.07a.188.188,0,0,1,0-.375h1.188a.166.166,0,0,1,.188.187A.2.2,0,0,1,23.258,258.812Z" fill="#415a6b"/>
        <path id="Path_66" data-name="Path 66" d="M21.508,260.124c-.063,0-.188-.063-.188-.125a.325.325,0,0,1,.125-.25c.188-.063.313-.125.313-.437a1.488,1.488,0,0,1,.562-.813.183.183,0,0,1,.188.313.763.763,0,0,0-.375.562c0,.437-.187.625-.625.75Z" fill="#415a6b"/>
        <path id="Path_67" data-name="Path 67" d="M23.633,262.747a6.716,6.716,0,0,1-.625-4.123v-.062h-.375a6.688,6.688,0,0,0,.687,4.373c1,1.811-.5,5.06-.5,5.122-.062.125,0,.187.063.25h.063c.062,0,.125-.063.187-.125C23.195,268.057,24.758,264.746,23.633,262.747Z" fill="#415a6b"/>
      </g>
      <g id="Group_13" data-name="Group 13">
        <path id="Path_68" data-name="Path 68" d="M8.008,254.876c3.438-3.435,7.875-5.372,7.875-9.557a4.174,4.174,0,0,0-4.125-4.185,3.992,3.992,0,0,0-3.687,2.373,4.314,4.314,0,0,0-3.813-2.373,4.174,4.174,0,0,0-4.125,4.185C.133,249.567,4.82,251.5,8.008,254.876Z" fill="#f3705a"/>
        <path id="Path_69" data-name="Path 69" d="M9.446,255.439a2.076,2.076,0,0,1-2.938,0c.313-.438.938-.688.938-1.25H8.508C8.508,254.689,9.133,255,9.446,255.439Z" fill="#f3705a"/>
      </g>
      <path id="Path_70" data-name="Path 70" d="M13.82,243.57c.5.562.626,1.187.375,1.374-.25.25-.874,0-1.312-.562-.5-.562-.625-1.187-.375-1.374C12.758,242.758,13.321,243.008,13.82,243.57Z" fill="#fff"/>
      <g id="Group_14" data-name="Group 14">
        <path id="Path_71" data-name="Path 71" d="M8.633,254.564H7.383a.188.188,0,0,1,0-.375h1.25a.166.166,0,0,1,.188.188C8.883,254.439,8.758,254.564,8.633,254.564Z" fill="#415a6b"/>
        <path id="Path_72" data-name="Path 72" d="M6.821,255.938c-.063,0-.188-.062-.188-.125a.327.327,0,0,1,.125-.25.469.469,0,0,0,.375-.437,1.724,1.724,0,0,1,.563-.874.182.182,0,1,1,.187.312,1.051,1.051,0,0,0-.438.562.716.716,0,0,1-.624.812Z" fill="#415a6b"/>
        <path id="Path_73" data-name="Path 73" d="M9.008,258.687a6.808,6.808,0,0,1-.625-4.31v-.063H8.008a7.239,7.239,0,0,0,.687,4.56c1.063,1.874-.5,5.31-.562,5.372-.063.125,0,.25.125.25H8.32c.063,0,.125-.062.188-.125S10.2,260.748,9.008,258.687Z" fill="#415a6b"/>
      </g>
      <g id="Group_15" data-name="Group 15">
        <path id="Path_74" data-name="Path 74" d="M15.133,264.309c3.125-3.061,7.125-4.873,7.125-8.621a3.747,3.747,0,0,0-7.125-1.624,3.747,3.747,0,0,0-7.125,1.624C8.008,259.5,12.258,261.248,15.133,264.309Z" fill="#ffd15c"/>
        <path id="Path_75" data-name="Path 75" d="M16.445,264.746a1.812,1.812,0,0,1-2.625,0c.313-.375.875-.625.875-1.124h.938C15.633,264.121,16.2,264.371,16.445,264.746Z" fill="#ffd15c"/>
      </g>
      <path id="Path_76" data-name="Path 76" d="M20.383,254.064c.438.5.562,1.062.375,1.25s-.75,0-1.188-.5-.562-1.062-.375-1.249S19.946,253.565,20.383,254.064Z" fill="#fff"/>
      <g id="Group_16" data-name="Group 16">
        <path id="Path_77" data-name="Path 77" d="M15.758,264H14.633a.188.188,0,0,1,0-.375h1.125a.166.166,0,0,1,.188.187C15.883,263.934,15.821,264,15.758,264Z" fill="#415a6b"/>
        <path id="Path_78" data-name="Path 78" d="M14.071,265.246c-.063,0-.188-.063-.188-.125a.327.327,0,0,1,.125-.25c.187-.062.312-.125.312-.375a1.309,1.309,0,0,1,.5-.749.182.182,0,1,1,.188.312.776.776,0,0,0-.375.5.63.63,0,0,1-.562.687Z" fill="#415a6b"/>
        <path id="Path_79" data-name="Path 79" d="M15.883,270.993c0,.187.375.187.375,0a4.461,4.461,0,0,0-.188-3.248,6.2,6.2,0,0,1-.562-3.873v-.063h-.375a6.639,6.639,0,0,0,.625,4.123A4.286,4.286,0,0,1,15.883,270.993Z" fill="#415a6b"/>
      </g>
    </g>
  </g>
</svg>
