<svg xmlns="http://www.w3.org/2000/svg" xmlns:xlink="http://www.w3.org/1999/xlink" width="495" height="130" viewBox="0 0 495 130">
  <defs>
    <clipPath id="clip-toDo-card">
      <rect width="495" height="130"/>
    </clipPath>
  </defs>
  <g id="toDo-card" clip-path="url(#clip-toDo-card)">
    <rect width="495" height="130" fill="#91d5a6"/>
    <g id="Group_10" data-name="Group 10" transform="translate(371 -10)" opacity="0.23">
      <path id="Path_60" data-name="Path 60" d="M9.94,18.533A5.253,5.253,0,0,1,14.736,15c2.89,0,4.97,2.687,5.232,5.889a6.354,6.354,0,0,1-.17,2.225,10.035,10.035,0,0,1-2.759,5L9.94,35,2.961,28.115a10.027,10.027,0,0,1-2.759-5,6.36,6.36,0,0,1-.17-2.226C.294,17.687,2.374,15,5.264,15A5.1,5.1,0,0,1,9.94,18.533Z" fill="#c03a2b"/>
      <path id="Path_61" data-name="Path 61" d="M2.4,21.99a.418.418,0,0,1-.4-.434,4.189,4.189,0,0,1,4-4.348.436.436,0,0,1,0,.869,3.353,3.353,0,0,0-3.2,3.479A.418.418,0,0,1,2.4,21.99Z" fill="#ed7161"/>
    </g>
    <g id="Group_17" data-name="Group 17" transform="translate(21.867 -226.134)" opacity="0.49">
      <g id="Group_11" data-name="Group 11">
        <path id="Path_62" data-name="Path 62" d="M22.633,259.062c3.25-3.249,7.5-5.123,7.5-9.121a3.941,3.941,0,0,0-7.5-1.749,3.941,3.941,0,0,0-7.5,1.749C15.133,254,19.571,255.876,22.633,259.062Z" fill="#66c6b9"/>
        <path id="Path_63" data-name="Path 63" d="M24.071,259.624a1.929,1.929,0,0,1-2.813,0c.313-.375.875-.687.875-1.187h1C23.133,258.937,23.758,259.187,24.071,259.624Z" fill="#66c6b9"/>
      </g>
      <path id="Path_64" data-name="Path 64" d="M28.2,248.317c.437.5.625,1.125.375,1.312s-.813,0-1.25-.562c-.438-.5-.625-1.125-.375-1.312C27.133,247.568,27.695,247.818,28.2,248.317Z" fill="#fff"/>
      <g id="Group_12" data-name="Group 12">
        <path id="Path_65" data-name="Path 65" d="M23.258,258.812H22.07a.188.188,0,0,1,0-.375h1.188a.166.166,0,0,1,.188.187A.2.2,0,0,1,23.258,258.812Z" fill="#415a6b"/>
        <path id="Path_66" data-name="Path 66" d="M21.508,260.124c-.063,0-.188-.063-.188-.125a.325.325,0,0,1,.125-.25c.188-.063.313-.125.313-.437a1.488,1.488,0,0,1,.562-.813.183.183,0,0,1,.188.313.763.763,0,0,0-.375.562c0,.437-.187.625-.625.75Z" fill="#415a6b"/>
        <path id="Path_67" data-name="Path 67" d="M23.633,262.747a6.716,6.716,0,0,1-.625-4.123v-.062h-.375a6.688,6.688,0,0,0,.687,4.373c1,1.811-.5,5.06-.5,5.122-.062.125,0,.187.063.25h.063c.062,0,.125-.063.187-.125C23.195,268.057,24.758,264.746,23.633,262.747Z" fill="#415a6b"/>
      </g>
      <g id="Group_13" data-name="Group 13">
        <path id="Path_68" data-name="Path 68" d="M8.008,254.876c3.438-3.435,7.875-5.372,7.875-9.557a4.174,4.174,0,0,0-4.125-4.185,3.992,3.992,0,0,0-3.687,2.373,4.314,4.314,0,0,0-3.813-2.373,4.174,4.174,0,0,0-4.125,4.185C.133,249.567,4.82,251.5,8.008,254.876Z" fill="#f3705a"/>
        <path id="Path_69" data-name="Path 69" d="M9.446,255.439a2.076,2.076,0,0,1-2.938,0c.313-.438.938-.688.938-1.25H8.508C8.508,254.689,9.133,255,9.446,255.439Z" fill="#f3705a"/>
      </g>
      <path id="Path_70" data-name="Path 70" d="M13.82,243.57c.5.562.626,1.187.375,1.374-.25.25-.874,0-1.312-.562-.5-.562-.625-1.187-.375-1.374C12.758,242.758,13.321,243.008,13.82,243.57Z" fill="#fff"/>
      <g id="Group_14" data-name="Group 14">
        <path id="Path_71" data-name="Path 71" d="M8.633,254.564H7.383a.188.188,0,0,1,0-.375h1.25a.166.166,0,0,1,.188.188C8.883,254.439,8.758,254.564,8.633,254.564Z" fill="#415a6b"/>
        <path id="Path_72" data-name="Path 72" d="M6.821,255.938c-.063,0-.188-.062-.188-.125a.327.327,0,0,1,.125-.25.469.469,0,0,0,.375-.437,1.724,1.724,0,0,1,.563-.874.182.182,0,1,1,.187.312,1.051,1.051,0,0,0-.438.562.716.716,0,0,1-.624.812Z" fill="#415a6b"/>
        <path id="Path_73" data-name="Path 73" d="M9.008,258.687a6.808,6.808,0,0,1-.625-4.31v-.063H8.008a7.239,7.239,0,0,0,.687,4.56c1.063,1.874-.5,5.31-.562,5.372-.063.125,0,.25.125.25H8.32c.063,0,.125-.062.188-.125S10.2,260.748,9.008,258.687Z" fill="#415a6b"/>
      </g>
      <g id="Group_15" data-name="Group 15">
        <path id="Path_74" data-name="Path 74" d="M15.133,264.309c3.125-3.061,7.125-4.873,7.125-8.621a3.747,3.747,0,0,0-7.125-1.624,3.747,3.747,0,0,0-7.125,1.624C8.008,259.5,12.258,261.248,15.133,264.309Z" fill="#ffd15c"/>
        <path id="Path_75" data-name="Path 75" d="M16.445,264.746a1.812,1.812,0,0,1-2.625,0c.313-.375.875-.625.875-1.124h.938C15.633,264.121,16.2,264.371,16.445,264.746Z" fill="#ffd15c"/>
      </g>
      <path id="Path_76" data-name="Path 76" d="M20.383,254.064c.438.5.562,1.062.375,1.25s-.75,0-1.188-.5-.562-1.062-.375-1.249S19.946,253.565,20.383,254.064Z" fill="#fff"/>
      <g id="Group_16" data-name="Group 16">
        <path id="Path_77" data-name="Path 77" d="M15.758,264H14.633a.188.188,0,0,1,0-.375h1.125a.166.166,0,0,1,.188.187C15.883,263.934,15.821,264,15.758,264Z" fill="#415a6b"/>
        <path id="Path_78" data-name="Path 78" d="M14.071,265.246c-.063,0-.188-.063-.188-.125a.327.327,0,0,1,.125-.25c.187-.062.312-.125.312-.375a1.309,1.309,0,0,1,.5-.749.182.182,0,1,1,.188.312.776.776,0,0,0-.375.5.63.63,0,0,1-.562.687Z" fill="#415a6b"/>
        <path id="Path_79" data-name="Path 79" d="M15.883,270.993c0,.187.375.187.375,0a4.461,4.461,0,0,0-.188-3.248,6.2,6.2,0,0,1-.562-3.873v-.063h-.375a6.639,6.639,0,0,0,.625,4.123A4.286,4.286,0,0,1,15.883,270.993Z" fill="#415a6b"/>
      </g>
    </g>
    <g id="Group_21" data-name="Group 21" transform="translate(-46.935 -158)">
      <path id="Path_80" data-name="Path 80" d="M104.444,229.051H59.615a2.3,2.3,0,0,0-2.49,2.034v52.881A2.3,2.3,0,0,0,59.615,286h44.829a2.3,2.3,0,0,0,2.491-2.034V231.085A2.3,2.3,0,0,0,104.444,229.051ZM64.6,237.186a2.076,2.076,0,1,1,2.491-2.033A2.3,2.3,0,0,1,64.6,237.186Zm17.434,0a2.075,2.075,0,1,1,2.49-2.033A2.3,2.3,0,0,1,82.03,237.186Zm17.433,0a2.076,2.076,0,1,1,2.491-2.033A2.3,2.3,0,0,1,99.463,237.186Z" fill="#35495e"/>
      <g id="Group_18" data-name="Group 18">
        <path id="Path_81" data-name="Path 81" d="M64.6,234.136a1.149,1.149,0,0,1-1.245-1.017v-6.1a1.271,1.271,0,0,1,2.49,0v6.1A1.149,1.149,0,0,1,64.6,234.136Z" fill="#bdc3c7"/>
        <path id="Path_82" data-name="Path 82" d="M82.03,234.136a1.149,1.149,0,0,1-1.245-1.017v-6.1a1.271,1.271,0,0,1,2.49,0v6.1A1.149,1.149,0,0,1,82.03,234.136Z" fill="#bdc3c7"/>
        <path id="Path_83" data-name="Path 83" d="M99.463,234.136a1.149,1.149,0,0,1-1.245-1.017v-6.1a1.271,1.271,0,0,1,2.491,0v6.1A1.15,1.15,0,0,1,99.463,234.136Z" fill="#bdc3c7"/>
      </g>
      <g id="Group_19" data-name="Group 19">
        <path id="Path_84" data-name="Path 84" d="M64.6,247.356a1.4,1.4,0,0,1-.88-.3l-2.491-2.034a.89.89,0,0,1,.008-1.431,1.451,1.451,0,0,1,1.753-.007l1.475,1.205,2.875-3.13a1.381,1.381,0,0,1,1.145-.4,1.243,1.243,0,0,1,1,.61.866.866,0,0,1-.149,1.01l-3.736,4.067a1.339,1.339,0,0,1-.908.4Z" fill="#ff5364"/>
        <path id="Path_85" data-name="Path 85" d="M64.6,258.542a1.4,1.4,0,0,1-.88-.3l-2.491-2.034a.89.89,0,0,1,.008-1.431,1.451,1.451,0,0,1,1.753-.006l1.475,1.2,2.875-3.13a1.387,1.387,0,0,1,1.145-.4,1.246,1.246,0,0,1,1,.61.866.866,0,0,1-.149,1.01l-3.736,4.068a1.338,1.338,0,0,1-.908.4Z" fill="#ff5364"/>
      </g>
      <g id="Group_20" data-name="Group 20">
        <path id="Path_86" data-name="Path 86" d="M101.954,246.339H73.313a1.038,1.038,0,1,1,0-2.034h28.641a1.038,1.038,0,1,1,0,2.034Z" fill="#fff"/>
        <path id="Path_87" data-name="Path 87" d="M101.954,257.525H73.313a1.037,1.037,0,1,1,0-2.033h28.641a1.037,1.037,0,1,1,0,2.033Z" fill="#fff"/>
        <path id="Path_88" data-name="Path 88" d="M101.954,268.712H73.313a1.038,1.038,0,1,1,0-2.034h28.641a1.038,1.038,0,1,1,0,2.034Z" fill="#fff"/>
        <path id="Path_89" data-name="Path 89" d="M101.954,279.9H73.313a1.038,1.038,0,1,1,0-2.034h28.641a1.038,1.038,0,1,1,0,2.034Z" fill="#fff"/>
      </g>
      <path id="Path_90" data-name="Path 90" d="M64.6,267.7a1.4,1.4,0,0,1-.88-.3l-1.245-1.017a.889.889,0,0,1,.008-1.431,1.449,1.449,0,0,1,1.752-.007l1.246,1.017a.885.885,0,0,1,.269,1.108A1.273,1.273,0,0,1,64.6,267.7Z" fill="#ff5364"/>
      <path id="Path_91" data-name="Path 91" d="M64.6,266.353v.325a9.509,9.509,0,0,1-6.263-2.237L49.5,256.63l3.736-3.05,9.09,8.044A6.344,6.344,0,0,1,64.6,266.353Z" fill="#bdc3c7"/>
      <path id="Path_92" data-name="Path 92" d="M53.24,253.58,49.5,256.63l-1.868-1.647a1.894,1.894,0,0,1,.149-3.051,3.077,3.077,0,0,1,3.736.122Z" fill="#ff5364"/>
    </g>
    <g id="Group_23" data-name="Group 23" transform="matrix(0.921, 0.391, -0.391, 0.921, 168.809, -214.987)">
      <path id="Path_93" data-name="Path 93" d="M34.242,249.835a1.131,1.131,0,0,1-1.036-1.207,1.316,1.316,0,0,1,.3-.853l.733-.853a4.024,4.024,0,0,0,.879-3.073l-.147-1.195c-.4-3.3,1.565-6.356,4.4-6.827a4.447,4.447,0,0,1,1.465,0,4.769,4.769,0,0,0,4.394-1.706l2.2-2.561a.936.936,0,0,1,1.465-.03,1.352,1.352,0,0,1,.026,1.707l-.026.03-2.2,2.561a6.671,6.671,0,0,1-6.154,2.389,3.221,3.221,0,0,0-3.516,3.07,4.286,4.286,0,0,0,0,1.025l.147,1.2a6.709,6.709,0,0,1-1.466,5.122l-.733.853a.96.96,0,0,1-.732.353Z" fill="#69b9e7"/>
      <path id="Path_94" data-name="Path 94" d="M59.151,278.85a1.131,1.131,0,0,1-1.036-1.207,1.316,1.316,0,0,1,.3-.853l.733-.853a4.78,4.78,0,0,1,4.4-1.707l1.026.171a3.219,3.219,0,0,0,3.516-3.069,4.243,4.243,0,0,0,0-1.026,9.4,9.4,0,0,1,2.051-7.17l2.2-2.559a.936.936,0,0,1,1.465.029,1.354,1.354,0,0,1,0,1.677l-2.2,2.56a6.712,6.712,0,0,0-1.466,5.121c.4,3.3-1.564,6.357-4.4,6.828a4.447,4.447,0,0,1-1.465,0l-1.026-.171a2.849,2.849,0,0,0-2.636,1.023l-.733.853a.962.962,0,0,1-.733.353Z" fill="#69b9e7"/>
      <path id="Path_95" data-name="Path 95" d="M45.964,263.99l2.2-31.576L76,229,73.07,261.429Z" fill="#fdb62f"/>
      <path id="Path_96" data-name="Path 96" d="M73.07,261.429l1.889-20.9-.424.42-2.612,3.043a41.74,41.74,0,0,0-8.936,18.391Z" fill="#de4c3b"/>
      <path id="Path_97" data-name="Path 97" d="M48.162,232.414l-.818,11.745A33.206,33.206,0,0,0,63.131,233.75l2.613-3.043.494-.51Z" fill="#69b9e7"/>
      <path id="Path_98" data-name="Path 98" d="M75.394,231.414,43.471,268.6a10.533,10.533,0,0,1-8.93,3.848,8.646,8.646,0,0,0-7.34,3.158A33.82,33.82,0,0,0,20.126,289.6l-2.092,8.53a1.073,1.073,0,0,1-1,.875.924.924,0,0,1-.285-.046,1.247,1.247,0,0,1-.713-1.492l2.093-8.53A36.364,36.364,0,0,1,25.738,273.9a10.581,10.581,0,0,1,8.962-3.856,8.611,8.611,0,0,0,7.306-3.148L73.5,230.207Z" fill="#69b9e7"/>
      <path id="Path_99" data-name="Path 99" d="M76,229l-1.637.2L46.093,262.133l-.129,1.857,1.595-.151,28.269-32.931Z" fill="#c48412"/>
      <path id="Path_100" data-name="Path 100" d="M73.07,262.636a.965.965,0,0,1-.733-.353L47.429,233.267a1.352,1.352,0,0,1,.026-1.707.933.933,0,0,1,1.439,0L73.8,260.576a1.351,1.351,0,0,1,0,1.707.966.966,0,0,1-.732.353Z" fill="#c48412"/>
      <path id="Path_101" data-name="Path 101" d="M48.052,233.992l6.174,7.192q.97-.561,1.908-1.19l-6.646-7.743-1.326.163Z" fill="#4298d1"/>
      <path id="Path_102" data-name="Path 102" d="M65.541,254.365l6.174,7.192,1.355-.128.14-1.543-6.647-7.744Q66.02,253.234,65.541,254.365Z" fill="#c94536"/>
      <path id="Path_103" data-name="Path 103" d="M27.007,273.992l-3.474-4.316a1.351,1.351,0,0,1,.048-1.706.98.98,0,0,1,.134-.124l3.137-2.436a.949.949,0,0,1,1.436.335,1.159,1.159,0,0,1,.083.174l2.084,5.395Z" fill="#ec9e15"/>
      <path id="Path_104" data-name="Path 104" d="M27.007,273.992l2.084,5.4a.982.982,0,0,0,1.37.605,1,1,0,0,0,.15-.1l3.137-2.436a1.334,1.334,0,0,0,.287-1.674,1.188,1.188,0,0,0-.106-.156l-3.474-4.316Z" fill="#ec9e15"/>
      <path id="Path_105" data-name="Path 105" d="M28.736,276.273a3.393,3.393,0,0,1-3.112-3.617,3.812,3.812,0,0,1,1.383-3.015,2.849,2.849,0,0,1,4.31,1,4,4,0,0,1-.859,5.022A2.81,2.81,0,0,1,28.736,276.273Z" fill="#fdb62f"/>
      <g id="Group_22" data-name="Group 22">
        <path id="Path_106" data-name="Path 106" d="M22.218,296.586a.826.826,0,0,1-.171-.016,1.2,1.2,0,0,1-.852-1.388l.184-1.289a1.071,1.071,0,0,1,1.182-1.01,1.2,1.2,0,0,1,.866,1.377l0,.029-.184,1.289a1.1,1.1,0,0,1-1.021,1.008Z" fill="#fbeebd"/>
        <path id="Path_107" data-name="Path 107" d="M23.253,291.366a.923.923,0,0,1-.335-.064,1.265,1.265,0,0,1-.645-1.533h0a27.576,27.576,0,0,1,3.259-7.183.945.945,0,0,1,1.446-.277,1.339,1.339,0,0,1,.238,1.684l-.026.041a25.067,25.067,0,0,0-2.957,6.515A1.06,1.06,0,0,1,23.253,291.366Z" fill="#fbeebd"/>
        <path id="Path_108" data-name="Path 108" d="M40.867,276.069a1.13,1.13,0,0,1-1.037-1.206,1.24,1.24,0,0,1,.573-1.081l.212-.123q.4-.234.793-.483a.97.97,0,0,1,1.4.516A1.317,1.317,0,0,1,42.4,275.3c-.282.178-.567.353-.854.52l-.213.124a.909.909,0,0,1-.462.128Z" fill="#fbeebd"/>
        <path id="Path_109" data-name="Path 109" d="M45.011,273.145a1.131,1.131,0,0,1-1.037-1.2,1.277,1.277,0,0,1,.422-.974,27.784,27.784,0,0,0,2.99-2.992.936.936,0,0,1,1.465.03,1.354,1.354,0,0,1,0,1.677,29.9,29.9,0,0,1-3.227,3.229.935.935,0,0,1-.613.235Z" fill="#fbeebd"/>
      </g>
    </g>
    <g id="Group_24" data-name="Group 24" transform="translate(155.521 19.472) rotate(-40)">
      <path id="Path_110" data-name="Path 110" d="M56.407,126.834v4.517c22.629,0,44.179,25.2,54.91,64.2l2.355-1.943C102.513,153.046,80.035,126.834,56.407,126.834Z" transform="translate(-56.407 -126.834)" fill="#235087"/>
      <path id="Path_111" data-name="Path 111" d="M115.1,125.553c-.561,0-1.059.623-1.237,1.544l-2.133,11.079-6.481-5.623c-.645-.557-1.428-.1-1.751,1.012a3.187,3.187,0,0,0,.585,3.031l7.825,6.774c.643.563,1.427.116,1.752-1,.029-.1.053-.2.074-.309l2.609-13.55a2.844,2.844,0,0,0-.834-2.847A.8.8,0,0,0,115.1,125.553Z" transform="translate(-56.407 -73.613)" fill="#235087"/>
    </g>
    <g id="Group_26" data-name="Group 26" transform="translate(245 -180.715)">
      <path id="Path_112" data-name="Path 112" d="M21.583,274.72H38.348v6.946H21.583Z" fill="#5a5a5a"/>
      <path id="Path_113" data-name="Path 113" d="M56.854,275.693H3.077A3.078,3.078,0,0,1,0,272.613V228.795a3.078,3.078,0,0,1,3.077-3.08H56.854a3.079,3.079,0,0,1,3.077,3.08v43.818A3.079,3.079,0,0,1,56.854,275.693Z" fill="#ffd86e"/>
      <path id="Path_114" data-name="Path 114" d="M59.931,228.795v43.818a3.078,3.078,0,0,1-3.076,3.08H53.1a3.078,3.078,0,0,0,3.077-3.08V228.795a3.078,3.078,0,0,0-3.077-3.08h3.759A3.078,3.078,0,0,1,59.931,228.795Z" fill="#ffb509"/>
      <path id="Path_115" data-name="Path 115" d="M59.931,268.272H0v4.341a3.078,3.078,0,0,0,3.077,3.08H56.854a3.079,3.079,0,0,0,3.077-3.08Z" fill="#838383"/>
      <path id="Path_116" data-name="Path 116" d="M59.931,268.272v4.341a3.078,3.078,0,0,1-3.076,3.08H53.1a3.078,3.078,0,0,0,3.077-3.08v-4.341Z" fill="#5a5a5a"/>
      <path id="Path_117" data-name="Path 117" d="M60,236.222H.067v-7.427a3.078,3.078,0,0,1,3.076-3.08h53.78A3.079,3.079,0,0,1,60,228.795Z" fill="#acacac"/>
      <path id="Path_118" data-name="Path 118" d="M60,228.794v7.429H56.173v-7.429a3.078,3.078,0,0,0-3.077-3.079h3.827A3.078,3.078,0,0,1,60,228.794Z" fill="#9c9c9c"/>
      <path id="Path_119" data-name="Path 119" d="M43.781,285.714H16.15a.6.6,0,0,1-.6-.6v-1.957a2.4,2.4,0,0,1,2.4-2.4H41.984a2.4,2.4,0,0,1,2.4,2.4v1.957A.6.6,0,0,1,43.781,285.714Z" fill="#838383"/>
      <path id="Path_120" data-name="Path 120" d="M44.383,283.154v1.957a.6.6,0,0,1-.6.6H41.651v-2.561a2.4,2.4,0,0,0-2.4-2.4h2.732A2.4,2.4,0,0,1,44.383,283.154Z" fill="#5a5a5a"/>
      <g id="Group_25" data-name="Group 25">
        <path id="Path_121" data-name="Path 121" d="M6.853,247.594a.877.877,0,0,1-.622-.258L3.395,244.5a.881.881,0,0,1,0-1.244l2.836-2.839a.879.879,0,0,1,1.243,1.244L5.26,243.875l2.214,2.217a.88.88,0,0,1-.621,1.5Z" fill="#838383"/>
        <path id="Path_122" data-name="Path 122" d="M13.633,247.594a.88.88,0,0,1-.622-1.5l2.215-2.217-2.215-2.217a.88.88,0,1,1,1.244-1.244l2.836,2.839a.881.881,0,0,1,0,1.244l-2.836,2.839A.877.877,0,0,1,13.633,247.594Z" fill="#838383"/>
        <path id="Path_123" data-name="Path 123" d="M9.225,247.594a.866.866,0,0,1-.321-.061.881.881,0,0,1-.5-1.141l2.229-5.678a.879.879,0,1,1,1.636.644l-2.229,5.678A.878.878,0,0,1,9.225,247.594Z" fill="#838383"/>
        <path id="Path_124" data-name="Path 124" d="M10.622,252.907H4.529a.88.88,0,0,1,0-1.76h6.093a.88.88,0,0,1,0,1.76Z" fill="#838383"/>
        <path id="Path_125" data-name="Path 125" d="M24.658,252.907H13.944a.88.88,0,0,1,0-1.76H24.658a.88.88,0,0,1,0,1.76Z" fill="#838383"/>
        <path id="Path_126" data-name="Path 126" d="M7.125,256.726h-2.6a.88.88,0,0,1,0-1.76h2.6a.88.88,0,0,1,0,1.76Z" fill="#838383"/>
        <path id="Path_127" data-name="Path 127" d="M22.93,256.726H21.349a.88.88,0,0,1,0-1.76H22.93a.88.88,0,0,1,0,1.76Z" fill="#838383"/>
        <path id="Path_128" data-name="Path 128" d="M18.063,256.726H10.3a.88.88,0,0,1,0-1.76h7.764a.88.88,0,0,1,0,1.76Z" fill="#838383"/>
        <path id="Path_129" data-name="Path 129" d="M28.759,256.726H25.8a.88.88,0,0,1,0-1.76h2.961a.88.88,0,0,1,0,1.76Z" fill="#838383"/>
        <path id="Path_130" data-name="Path 130" d="M23.091,244.575H19.967a.88.88,0,0,1,0-1.76h3.124a.88.88,0,0,1,0,1.76Z" fill="#838383"/>
        <path id="Path_131" data-name="Path 131" d="M45.645,244.575H26.588a.88.88,0,0,1,0-1.76H45.645a.88.88,0,0,1,0,1.76Z" fill="#838383"/>
        <path id="Path_132" data-name="Path 132" d="M42.75,248.56H35.031a.88.88,0,0,1,0-1.76H42.75a.88.88,0,0,1,0,1.76Z" fill="#838383"/>
        <path id="Path_133" data-name="Path 133" d="M32.136,248.56H29.483a.88.88,0,0,1,0-1.76h2.653a.88.88,0,0,1,0,1.76Z" fill="#838383"/>
        <path id="Path_134" data-name="Path 134" d="M26.468,248.56h-6.5a.88.88,0,0,1,0-1.76h6.5a.88.88,0,0,1,0,1.76Z" fill="#838383"/>
        <path id="Path_135" data-name="Path 135" d="M18.075,260.514H11.981a.88.88,0,0,1,0-1.76h6.094a.88.88,0,0,1,0,1.76Z" fill="#838383"/>
        <path id="Path_136" data-name="Path 136" d="M9.211,260.514H4.529a.88.88,0,0,1,0-1.76H9.211a.88.88,0,0,1,0,1.76Z" fill="#838383"/>
        <path id="Path_137" data-name="Path 137" d="M29.121,260.514h-7.96a.88.88,0,0,1,0-1.76h7.96a.88.88,0,0,1,0,1.76Z" fill="#838383"/>
      </g>
      <path id="Path_138" data-name="Path 138" d="M34.765,256.615H54.353v6.641H34.765Z" fill="#64dcfc"/>
      <path id="Path_139" data-name="Path 139" d="M34.765,266.878H54.353v6.159H34.765Z" fill="#64dcfc"/>
      <path id="Path_140" data-name="Path 140" d="M52.037,256.615h2.316v6.641H52.037Z" fill="#00d1fc"/>
      <path id="Path_141" data-name="Path 141" d="M52.037,266.878h2.316v6.159H52.037Z" fill="#00d1fc"/>
      <path id="Path_142" data-name="Path 142" d="M55.975,258.058H33.143a.875.875,0,0,1-.874-.875v-4.4a.875.875,0,0,1,.874-.875H55.975a.875.875,0,0,1,.875.875v4.4A.875.875,0,0,1,55.975,258.058Z" fill="#0396fd"/>
      <path id="Path_143" data-name="Path 143" d="M55.975,267.927H33.143a.875.875,0,0,1-.874-.875v-4.4a.875.875,0,0,1,.874-.875H55.975a.875.875,0,0,1,.875.875v4.4A.875.875,0,0,1,55.975,267.927Z" fill="#0396fd"/>
      <path id="Path_144" data-name="Path 144" d="M55.975,277.8H33.143a.875.875,0,0,1-.874-.875v-4.4a.875.875,0,0,1,.874-.875H55.975a.875.875,0,0,1,.875.875v4.4A.875.875,0,0,1,55.975,277.8Z" fill="#0396fd"/>
      <path id="Path_145" data-name="Path 145" d="M56.85,252.781v4.4a.875.875,0,0,1-.875.875H53.947a.874.874,0,0,0,.874-.875v-4.4a.874.874,0,0,0-.874-.875h2.028A.875.875,0,0,1,56.85,252.781Z" fill="#0077f0"/>
      <path id="Path_146" data-name="Path 146" d="M56.85,262.65v4.4a.874.874,0,0,1-.875.876H53.947a.874.874,0,0,0,.874-.876v-4.4a.874.874,0,0,0-.874-.875h2.028A.875.875,0,0,1,56.85,262.65Z" fill="#0077f0"/>
      <path id="Path_147" data-name="Path 147" d="M56.85,272.52v4.4a.875.875,0,0,1-.875.875H53.947a.874.874,0,0,0,.874-.875v-4.4a.875.875,0,0,0-.874-.876h2.028A.875.875,0,0,1,56.85,272.52Z" fill="#0077f0"/>
      <path id="Path_148" data-name="Path 148" d="M39.886,255.862H35.533a.88.88,0,0,1,0-1.76h4.354a.88.88,0,0,1,0,1.76Z" fill="#e7e7e7"/>
      <path id="Path_149" data-name="Path 149" d="M53.585,255.862H47.44a.88.88,0,0,1,0-1.76h6.145a.88.88,0,0,1,0,1.76Z" fill="#e7e7e7"/>
      <path id="Path_150" data-name="Path 150" d="M44.367,255.862H42.959a.88.88,0,0,1,0-1.76h1.408a.88.88,0,0,1,0,1.76Z" fill="#e7e7e7"/>
      <path id="Path_151" data-name="Path 151" d="M39.886,265.731H35.533a.88.88,0,0,1,0-1.76h4.354a.88.88,0,0,1,0,1.76Z" fill="#e7e7e7"/>
      <path id="Path_152" data-name="Path 152" d="M53.585,265.731H47.44a.88.88,0,0,1,0-1.76h6.145a.88.88,0,0,1,0,1.76Z" fill="#e7e7e7"/>
      <path id="Path_153" data-name="Path 153" d="M44.367,265.731H42.959a.88.88,0,0,1,0-1.76h1.408a.88.88,0,0,1,0,1.76Z" fill="#e7e7e7"/>
      <path id="Path_154" data-name="Path 154" d="M39.886,275.6H35.533a.88.88,0,0,1,0-1.76h4.354a.88.88,0,0,1,0,1.76Z" fill="#e7e7e7"/>
      <path id="Path_155" data-name="Path 155" d="M53.585,275.6H47.44a.88.88,0,0,1,0-1.76h6.145a.88.88,0,0,1,0,1.76Z" fill="#e7e7e7"/>
      <path id="Path_156" data-name="Path 156" d="M44.367,275.6H42.959a.88.88,0,0,1,0-1.76h1.408a.88.88,0,0,1,0,1.76Z" fill="#e7e7e7"/>
      <path id="Path_157" data-name="Path 157" d="M7.517,230.943a1.751,1.751,0,1,1-1.75-1.752A1.751,1.751,0,0,1,7.517,230.943Z" fill="#ff5770"/>
      <path id="Path_158" data-name="Path 158" d="M14.275,230.943a1.75,1.75,0,1,1-1.75-1.752A1.75,1.75,0,0,1,14.275,230.943Z" fill="#ffd86e"/>
      <path id="Path_159" data-name="Path 159" d="M21.034,230.943a1.75,1.75,0,1,1-1.75-1.752A1.75,1.75,0,0,1,21.034,230.943Z" fill="#80e0dc"/>
      <path id="Path_160" data-name="Path 160" d="M7.516,230.943A1.748,1.748,0,0,1,4.56,232.21a1.75,1.75,0,0,0,1.166-3.017.282.282,0,0,1,.041,0A1.75,1.75,0,0,1,7.516,230.943Z" fill="#ff435f"/>
      <path id="Path_161" data-name="Path 161" d="M14.275,230.943a1.749,1.749,0,0,1-2.957,1.267,1.751,1.751,0,0,0,1.168-3.017.249.249,0,0,1,.039,0A1.75,1.75,0,0,1,14.275,230.943Z" fill="#ffb509"/>
      <path id="Path_162" data-name="Path 162" d="M21.034,230.943a1.749,1.749,0,0,1-2.957,1.267,1.75,1.75,0,0,0,1.166-3.017.282.282,0,0,1,.041,0A1.751,1.751,0,0,1,21.034,230.943Z" fill="#00a8b0"/>
    </g>
    <g id="Group_84" data-name="Group 84" transform="translate(398.999 -204.984)">
      <path id="Path_206" data-name="Path 206" d="M94,260.579a9.572,9.572,0,0,1-9.653,9.491H34.863a10.657,10.657,0,0,1-2.9-20.964l0-.006a18.945,18.945,0,0,1,13.378-23.406,19.357,19.357,0,0,1,23.811,13.15,18.672,18.672,0,0,1,.714,4.742,8.539,8.539,0,0,1,2.39-.713,8.652,8.652,0,0,1,1.235-.089,8.376,8.376,0,0,1,8.448,8.3h2.414A9.574,9.574,0,0,1,94,260.578Z" fill="#3ea7ff"/>
      <path id="Path_207" data-name="Path 207" d="M31.961,249.1a18.678,18.678,0,0,0,1.695,4.064l-2.11,1.15a20.934,20.934,0,0,1-1.835-4.324,11.018,11.018,0,0,1,2.247-.888l0-.006Z" fill="#2b7cd4"/>
      <path id="Path_208" data-name="Path 208" d="M72.277,243.97a21.07,21.07,0,0,1-.381,4l-2.372-.442a18.814,18.814,0,0,0,.339-3.559c0-.127,0-.256,0-.384a8.539,8.539,0,0,1,2.39-.713C72.268,243.236,72.278,243.6,72.277,243.97Z" fill="#2b7cd4"/>
      <path id="Path_209" data-name="Path 209" d="M38.484,265.325H69.863v9.491H38.484Z" fill="#ccc"/>
      <path id="Path_210" data-name="Path 210" d="M43.312,268.884h2.413v2.373H43.312Z" fill="#eb352f"/>
      <path id="Path_211" data-name="Path 211" d="M48.139,268.884h2.414v2.373H48.139Z" fill="#f2e368"/>
      <path id="Path_212" data-name="Path 212" d="M52.967,268.884h7.241v2.373H52.967Z" fill="#a0cc00"/>
      <path id="Path_213" data-name="Path 213" d="M38.484,255.834H69.863v9.491H38.484Z" fill="#e6e6e6"/>
      <path id="Path_214" data-name="Path 214" d="M43.312,259.393h2.413v2.373H43.312Z" fill="#eb352f"/>
      <path id="Path_215" data-name="Path 215" d="M48.139,259.393h2.414v2.373H48.139Z" fill="#f2e368"/>
      <path id="Path_216" data-name="Path 216" d="M52.967,259.393h7.241v2.373H52.967Z" fill="#a0cc00"/>
      <path id="Path_217" data-name="Path 217" d="M69.863,265.325h9.656v9.491H69.863Z" fill="#b3b3b3"/>
      <path id="Path_218" data-name="Path 218" d="M69.863,255.834h9.656v9.491H69.863Z" fill="#ccc"/>
      <g id="Group_83" data-name="Group 83">
        <path id="Path_219" data-name="Path 219" d="M57.794,274.816h2.414v9.49H57.794Z" fill="gray"/>
        <path id="Path_220" data-name="Path 220" d="M57.794,286.679h2.414v8.305H57.794Z" fill="gray"/>
        <path id="Path_221" data-name="Path 221" d="M80.726,294.984H78.312V286.7h-18.1v-2.373H79.519a1.2,1.2,0,0,1,1.207,1.187Z" fill="gray"/>
        <path id="Path_222" data-name="Path 222" d="M39.691,294.984H37.277v-9.466a1.2,1.2,0,0,1,1.207-1.187h19.31V286.7h-18.1Z" fill="gray"/>
      </g>
      <ellipse id="Ellipse_27" data-name="Ellipse 27" cx="2.389" cy="2.348" rx="2.389" ry="2.348" transform="translate(56.613 283.17)" fill="#3ea7ff"/>
    </g>
    <g id="Group_85" data-name="Group 85" transform="translate(384.972 -186.863) rotate(14)">
      <path id="Path_223" data-name="Path 223" d="M15.875,280.848l-4.968,4.258-3.313-5.616,1.728-1.481Z" fill="#41d4d3"/>
      <path id="Path_224" data-name="Path 224" d="M24.06,273.832l-4.968,4.258-3.313-5.616,1.729-1.482Z" fill="#ffaabd"/>
      <path id="Path_225" data-name="Path 225" d="M6.01,272.393l3.312,5.617-1.728,1.481-6.552-2.84Z" fill="#00bab9"/>
      <path id="Path_226" data-name="Path 226" d="M14.2,265.377l3.313,5.616-1.729,1.482-6.552-2.84Z" fill="#fe7f9c"/>
      <path id="Path_227" data-name="Path 227" d="M70,258.5l-46.033,6.962,27.078-23.209Z" fill="#ffaabd"/>
      <path id="Path_228" data-name="Path 228" d="M70,226v32.5L51.045,242.249Z" fill="#fe7f9c"/>
      <path id="Path_229" data-name="Path 229" d="M51.045,242.249,23.966,265.457,32.088,226Z" fill="#fce190"/>
      <path id="Path_230" data-name="Path 230" d="M70,226,51.045,242.249,32.088,226Z" fill="#ffb354"/>
      <path id="Path_231" data-name="Path 231" d="M24.311,263.784.333,284.337a.879.879,0,0,0,0,1.378,1.238,1.238,0,0,0,.8.285,1.242,1.242,0,0,0,.8-.285l23.978-20.553Z" fill="#fe547b"/>
    </g>
  </g>
</svg>
