<svg xmlns="http://www.w3.org/2000/svg" xmlns:xlink="http://www.w3.org/1999/xlink" width="1500" height="255" viewBox="0 0 1500 255">
  <defs>
    <linearGradient id="linear-gradient" x1="-0.198" y1="-4.028" x2="1.64" y2="-3.081" gradientUnits="objectBoundingBox">
      <stop offset="0" stop-color="#e2edf2"/>
      <stop offset="1" stop-color="#9fc7e2"/>
    </linearGradient>
    <linearGradient id="linear-gradient-2" x1="0.221" y1="-8.48" x2="1.086" y2="-8.182" xlink:href="#linear-gradient"/>
    <linearGradient id="linear-gradient-3" x1="0.162" y1="-3.207" x2="0.495" y2="-2.971" gradientUnits="objectBoundingBox">
      <stop offset="0" stop-color="#816965"/>
      <stop offset="1" stop-color="#654e48"/>
    </linearGradient>
    <linearGradient id="linear-gradient-4" x1="0.467" y1="-1.813" x2="0.467" y2="-0.929" gradientUnits="objectBoundingBox">
      <stop offset="0" stop-color="#ffe7a5"/>
      <stop offset="0.966" stop-color="#ffbf5c"/>
    </linearGradient>
    <linearGradient id="linear-gradient-5" x1="0.47" y1="-5.206" x2="0.47" y2="-4.321" gradientUnits="objectBoundingBox">
      <stop offset="0" stop-color="#ff5d00"/>
      <stop offset="1" stop-color="#d54003"/>
    </linearGradient>
    <linearGradient id="linear-gradient-6" x1="0.455" y1="-1.813" x2="0.455" y2="-0.929" xlink:href="#linear-gradient-4"/>
    <linearGradient id="linear-gradient-7" x1="0.432" y1="-1.699" x2="-0.605" y2="-2.607" gradientUnits="objectBoundingBox">
      <stop offset="0" stop-color="#ff5d00" stop-opacity="0"/>
      <stop offset="1" stop-color="#d54003"/>
    </linearGradient>
    <linearGradient id="linear-gradient-8" x1="0.459" y1="-5.206" x2="0.459" y2="-4.321" xlink:href="#linear-gradient-5"/>
    <linearGradient id="linear-gradient-9" x1="0.485" y1="-0.123" x2="0.485" y2="0.582" gradientUnits="objectBoundingBox">
      <stop offset="0" stop-color="#ffe7a5"/>
      <stop offset="0.966" stop-color="#ffbf5c"/>
      <stop offset="1" stop-color="#db9e36"/>
    </linearGradient>
    <linearGradient id="linear-gradient-10" x1="0.376" y1="-0.351" x2="0.086" y2="-0.543" xlink:href="#linear-gradient-7"/>
    <linearGradient id="linear-gradient-11" x1="0.523" y1="-0.998" x2="0.409" y2="-1.994" xlink:href="#linear-gradient-7"/>
    <linearGradient id="linear-gradient-12" x1="0.388" y1="-1.061" x2="-0.193" y2="-1.852" xlink:href="#linear-gradient-7"/>
    <linearGradient id="linear-gradient-13" x1="0.743" y1="-1.19" x2="-0.211" y2="-1.698" xlink:href="#linear-gradient-7"/>
    <linearGradient id="linear-gradient-14" x1="0.176" y1="-4.425" x2="0.793" y2="-3.531" gradientUnits="objectBoundingBox">
      <stop offset="0" stop-color="#9eb644"/>
      <stop offset="1" stop-color="#738611"/>
    </linearGradient>
    <linearGradient id="linear-gradient-15" x1="0.158" y1="-6.205" x2="0.775" y2="-5.312" xlink:href="#linear-gradient-14"/>
    <linearGradient id="linear-gradient-16" x1="0.167" y1="-3.756" x2="0.785" y2="-2.862" xlink:href="#linear-gradient-14"/>
    <linearGradient id="linear-gradient-17" x1="0.57" y1="-0.53" x2="-0.128" y2="-1.005" xlink:href="#linear-gradient-7"/>
    <linearGradient id="linear-gradient-18" x1="0.486" y1="-7.455" x2="0.486" y2="-6.134" xlink:href="#linear-gradient-5"/>
    <linearGradient id="linear-gradient-19" x1="0.489" y1="-0.68" x2="0.489" y2="0.075" xlink:href="#linear-gradient-5"/>
    <linearGradient id="linear-gradient-20" x1="0.68" y1="-0.549" x2="0.186" y2="-1.003" xlink:href="#linear-gradient-7"/>
    <clipPath id="clip-_welcom">
      <rect width="1500" height="255"/>
    </clipPath>
  </defs>
  <g id="_welcom" data-name=" welcom" clip-path="url(#clip-_welcom)">
    <rect width="1500" height="255" fill="#d4d4d4"/>
    <g id="Group_1" data-name="Group 1" transform="translate(40.001 -216.999)" opacity="0.05">
      <path id="Path_1" data-name="Path 1" d="M26.44,286a8.116,8.116,0,0,1-6.058-2.793l-4.039-4.5a9.457,9.457,0,0,0-14.382,0l-.226.251a.944.944,0,0,1-1.438,0,1.228,1.228,0,0,1,0-1.6l.226-.252a11.528,11.528,0,0,1,8.629-3.984,11.526,11.526,0,0,1,8.629,3.984l4.039,4.5a6.068,6.068,0,0,0,9.24,0,7.887,7.887,0,0,0,0-10.3l-.508-.567a10.355,10.355,0,0,1,0-13.508l6.864-7.653a.945.945,0,0,1,1.438,0,1.229,1.229,0,0,1,0,1.6L31.99,258.83a7.9,7.9,0,0,0,0,10.3l.508.567a10.354,10.354,0,0,1,0,13.507A8.112,8.112,0,0,1,26.44,286Z" fill="#f5dcb4"/>
      <path id="Path_2" data-name="Path 2" d="M33.816,253.722l5.671-25.991A2.091,2.091,0,0,1,41.463,226h16.5A2.16,2.16,0,0,1,60,228.267v18.4a2.235,2.235,0,0,1-1.553,2.2L35.133,255.19A1.157,1.157,0,0,1,33.816,253.722Z" fill="#fff082"/>
      <path id="Path_3" data-name="Path 3" d="M57.966,226h-16.5a1.894,1.894,0,0,0-1.2.443L59.6,248a2.438,2.438,0,0,0,.4-1.339v-18.4A2.159,2.159,0,0,0,57.966,226Z" fill="#ff507d"/>
      <path id="Path_4" data-name="Path 4" d="M57.966,226h-16.5a2.091,2.091,0,0,0-1.976,1.732l-5.671,25.991a1.3,1.3,0,0,0,.289,1.146l25.3-28.205A1.93,1.93,0,0,0,57.966,226Z" fill="#b4e66e"/>
      <path id="Path_5" data-name="Path 5" d="M41.463,226a2.091,2.091,0,0,0-1.976,1.732l-5.671,25.991a1.3,1.3,0,0,0,.289,1.146L48.574,226Z" fill="#a0d755"/>
      <path id="Path_6" data-name="Path 6" d="M40.821,226.118a2,2,0,0,0-.558.324l9.669,10.781,9.472-10.56a2.052,2.052,0,0,0-.647-.486,1.845,1.845,0,0,0-.792-.178h-16.5a1.831,1.831,0,0,0-.634.116Z" fill="#00aaf0"/>
      <path id="Path_7" data-name="Path 7" d="M30.508,265.964H27.762a1.425,1.425,0,0,1,0-2.834h2.746a1.425,1.425,0,0,1,0,2.834Z" fill="#ff507d"/>
      <path id="Path_8" data-name="Path 8" d="M13.065,277.9a1.151,1.151,0,0,1-.574-.154,1.5,1.5,0,0,1-.558-1.9l1.175-2.584a1.211,1.211,0,0,1,1.709-.622,1.5,1.5,0,0,1,.558,1.9L14.2,277.124A1.26,1.26,0,0,1,13.065,277.9Z" fill="#b4e66e"/>
      <path id="Path_9" data-name="Path 9" d="M31.42,285.979a1.236,1.236,0,0,1-1.052-.62l-1.462-2.4a1.522,1.522,0,0,1,.336-1.969,1.192,1.192,0,0,1,1.766.375l1.461,2.4a1.519,1.519,0,0,1-.335,1.968A1.177,1.177,0,0,1,31.42,285.979Z" fill="#fff082"/>
      <path id="Path_10" data-name="Path 10" d="M40.821,226.118a2,2,0,0,0-.558.324l5.189,5.786L48.574,226h-7.11a1.822,1.822,0,0,0-.634.116Z" fill="#0096dc"/>
    </g>
    <g id="Group_2" data-name="Group 2" transform="translate(15 -37)" opacity="0.05">
      <path id="Path_11" data-name="Path 11" d="M15.875,280.848l-4.968,4.258-3.313-5.616,1.728-1.481Z" fill="#41d4d3"/>
      <path id="Path_12" data-name="Path 12" d="M24.06,273.832l-4.968,4.258-3.313-5.616,1.729-1.482Z" fill="#ffaabd"/>
      <path id="Path_13" data-name="Path 13" d="M6.01,272.393l3.312,5.617-1.728,1.481-6.552-2.84Z" fill="#00bab9"/>
      <path id="Path_14" data-name="Path 14" d="M14.2,265.377l3.313,5.616-1.729,1.482-6.552-2.84Z" fill="#fe7f9c"/>
      <path id="Path_15" data-name="Path 15" d="M70,258.5l-46.033,6.962,27.078-23.209Z" fill="#ffaabd"/>
      <path id="Path_16" data-name="Path 16" d="M70,226v32.5L51.045,242.249Z" fill="#fe7f9c"/>
      <path id="Path_17" data-name="Path 17" d="M51.045,242.249,23.966,265.457,32.088,226Z" fill="#fce190"/>
      <path id="Path_18" data-name="Path 18" d="M70,226,51.045,242.249,32.088,226Z" fill="#ffb354"/>
      <path id="Path_19" data-name="Path 19" d="M24.311,263.784.333,284.337a.879.879,0,0,0,0,1.378,1.238,1.238,0,0,0,.8.285,1.242,1.242,0,0,0,.8-.285l23.978-20.553Z" fill="#fe547b"/>
    </g>
    <g id="Group_6" data-name="Group 6" transform="translate(1416.277 -36.999)" opacity="0.05">
      <path id="Path_20" data-name="Path 20" d="M68.722,248.166a.052.052,0,0,1-.023.053l-.848.566c-3.842,2.572-19.657,13.157-24.932,16.689h0l-1.706,1.143-.014.009a.017.017,0,0,1-.026-.013c0-.144.032-.875.074-2.025.233-6.354.932-25.5,1.07-29.246.012-.326.02-.533.023-.608a.675.675,0,0,1,.432-.6l.712-.279c3.612-1.4,15.752-6.066,19.352-7.444l1.015-.389a.342.342,0,0,1,.2-.014.334.334,0,0,1,.26.259l.2,1.011c.729,3.619,3.205,15.924,3.976,19.745C68.637,247.747,68.722,248.166,68.722,248.166Z" fill="#ffeb99"/>
      <path id="Path_21" data-name="Path 21" d="M68.722,248.166a.052.052,0,0,1-.023.053l-.848.566c-3.842,2.572-19.657,13.157-24.932,16.689h0l-1.706,1.143,22.842-40.608a.335.335,0,0,1,.26.259s.073.368.2,1.011c.729,3.619,3.205,15.924,3.976,19.745C68.637,247.747,68.722,248.166,68.722,248.166Z" fill="#ffda44"/>
      <path id="Path_22" data-name="Path 22" d="M18.074,278.362l2.112-1.934a.771.771,0,0,1,1.26.35l1.113,4.157-4.2-1.341A.725.725,0,0,1,18.074,278.362Z" fill="#5aaae7"/>
      <path id="Path_23" data-name="Path 23" d="M25.115,285.358l-2.838.622a.746.746,0,0,1-.9-.921l1.239-4.124,2.9,3.223A.728.728,0,0,1,25.115,285.358Z" fill="#1e81ce"/>
      <path id="Path_24" data-name="Path 24" d="M30.982,269.411l2.07-3.293a1.05,1.05,0,0,1,1.777.022l3.013,5.092-6.033-.309A.994.994,0,0,1,30.982,269.411Z" fill="#ff6243"/>
      <path id="Path_25" data-name="Path 25" d="M42.856,276.158l-3.521,1.812a1.03,1.03,0,0,1-1.516-.895l.1-5.863,5.026,3.238A.979.979,0,0,1,42.856,276.158Z" fill="#cd2a00"/>
      <path id="Path_26" data-name="Path 26" d="M23.753,275.194l2.357-3.108a1.05,1.05,0,0,1,1.769.171l2.546,5.323-5.983-.81A.99.99,0,0,1,23.753,275.194Z" fill="#ffde55"/>
      <path id="Path_27" data-name="Path 27" d="M34.98,282.906l-3.669,1.512a1.025,1.025,0,0,1-1.43-1.019l.621-5.833,4.718,3.645A.981.981,0,0,1,34.98,282.906Z" fill="#ffcd00"/>
      <g id="Group_3" data-name="Group 3">
        <ellipse id="Ellipse_1" data-name="Ellipse 1" cx="0.817" cy="1.464" rx="0.817" ry="1.464" transform="translate(53.735 235.174)" fill="#ff7956"/>
        <ellipse id="Ellipse_2" data-name="Ellipse 2" cx="1.454" cy="0.763" rx="1.454" ry="0.763" transform="translate(58.001 239.47) rotate(-19.962)" fill="#ff7956"/>
        <ellipse id="Ellipse_3" data-name="Ellipse 3" cx="0.817" cy="1.464" rx="0.817" ry="1.464" transform="translate(55.745 244.815) rotate(-2.549)" fill="#ff7956"/>
        <ellipse id="Ellipse_4" data-name="Ellipse 4" cx="1.508" cy="0.793" rx="1.508" ry="0.793" transform="matrix(0.926, -0.379, 0.379, 0.926, 49.358, 242.843)" fill="#ff7956"/>
      </g>
      <g id="Group_4" data-name="Group 4">
        <path id="Path_28" data-name="Path 28" d="M15.248,256.01a19.877,19.877,0,0,1-5.524-.675.915.915,0,0,1-.611-1.162.961.961,0,0,1,1.2-.59,21.259,21.259,0,0,0,8.271.359c4.53-.607,11.382-2.8,18.3-9.8a.979.979,0,0,1,1.349-.03.9.9,0,0,1,.03,1.3c-7.34,7.424-14.672,9.734-19.531,10.365A27.077,27.077,0,0,1,15.248,256.01Z" fill="#b3d8f4"/>
        <path id="Path_29" data-name="Path 29" d="M20.158,260.971a.945.945,0,0,1-.945-.8.929.929,0,0,1,.818-1.037,30,30,0,0,0,12.739-5.013.975.975,0,0,1,1.328.227.9.9,0,0,1-.235,1.283,31.95,31.95,0,0,1-13.576,5.329A.957.957,0,0,1,20.158,260.971Z" fill="#b3d8f4"/>
      </g>
      <g id="Group_5" data-name="Group 5">
        <path id="Path_30" data-name="Path 30" d="M65.655,232.935q-.2.009-.408.009a11.022,11.022,0,0,1-8.661-4.134l7.262-2.787a.346.346,0,0,1,.465.245C64.314,226.274,64.9,229.213,65.655,232.935Z" fill="#ff7956"/>
        <path id="Path_31" data-name="Path 31" d="M50.695,260.268l-9.5,6.358a.016.016,0,0,1-.025-.014s.178-4.882.4-10.851c.06,0,.121,0,.182,0A11.007,11.007,0,0,1,50.695,260.268Z" fill="#ff7956"/>
        <path id="Path_32" data-name="Path 32" d="M68.722,248.166a.052.052,0,0,1-.023.053l-5.976,4a10.226,10.226,0,0,1-.411-2.873,10.431,10.431,0,0,1,4.879-8.778C68.028,244.724,68.721,248.166,68.722,248.166Z" fill="#ff7956"/>
        <path id="Path_33" data-name="Path 33" d="M49.818,231.41a10.594,10.594,0,0,1-7.72,9.845c.115-3.133.2-5.573.239-6.521a.675.675,0,0,1,.433-.6C43.794,233.732,46.587,232.655,49.818,231.41Z" fill="#ff7956"/>
      </g>
      <path id="Path_34" data-name="Path 34" d="M68.492,247.024l-11.668-6.143,7.692-13.6c-.13-.643-.2-1.011-.2-1.011a.345.345,0,0,0-.464-.245l-1.015.389L55.149,240l-11.667-6.144-.712.279a.676.676,0,0,0-.433.6c0,.075-.01.282-.023.608l11.92,6.275c-14.153,25.03-16.263,33.712-32.605,38.682a43.988,43.988,0,0,1-11.938,1.919.922.922,0,1,0-.028,1.843h.123a45.631,45.631,0,0,0,12.356-1.987,38.344,38.344,0,0,0,10.647-5.011,31.018,31.018,0,0,0,10.128-11.59h0L55.909,242.5l11.942,6.286.848-.566a.052.052,0,0,0,.023-.053S68.637,247.747,68.492,247.024Z" fill="#ff9811"/>
    </g>
    <g id="Group_7" data-name="Group 7" transform="translate(1371.662 -67)" opacity="0.05">
      <path id="Path_35" data-name="Path 35" d="M64.338,284.983V272.864a4.048,4.048,0,0,0-1.765-3.332l-7.778-5.354a3.142,3.142,0,0,0-1.781-.551H46.752l.1,17.4a4.257,4.257,0,0,0,3,3.956Z" fill="#fec9a3"/>
      <path id="Path_36" data-name="Path 36" d="M58.131,284.983H50.89a4.1,4.1,0,0,1-4.138-4.068v-4.068h7.241Z" fill="#fabd91"/>
      <path id="Path_37" data-name="Path 37" d="M31.235,233.119a5.226,5.226,0,0,0-2.069.429V226H10.545a6.155,6.155,0,0,0-6.207,6.1v18.3h7.678a5.051,5.051,0,0,1,2.657-6.7,5.207,5.207,0,0,1,6.815,2.612,5.006,5.006,0,0,1,0,4.089h7.678V242.86a5.207,5.207,0,0,0,6.815-2.612,5.051,5.051,0,0,0-2.657-6.7A5.219,5.219,0,0,0,31.235,233.119Z" fill="#88b337"/>
      <path id="Path_38" data-name="Path 38" d="M53.993,232.1a6.155,6.155,0,0,0-6.207-6.1H29.166v7.548a5.206,5.206,0,0,1,6.815,2.611,5.052,5.052,0,0,1-2.657,6.7,5.246,5.246,0,0,1-4.159,0v7.548h7.677a5.051,5.051,0,0,0,2.657,6.7,5.206,5.206,0,0,0,6.815-2.611,5,5,0,0,0,0-4.089h7.679V232.1Z" fill="#e8594a"/>
      <path id="Path_39" data-name="Path 39" d="M53.993,232.682c-5.913,8.087-16.588,12.681-24.827,15.153v2.572h7.678a5.049,5.049,0,0,0,2.656,6.7,5.206,5.206,0,0,0,6.815-2.611,5,5,0,0,0,0-4.089h7.678Z" fill="#d65245"/>
      <path id="Path_40" data-name="Path 40" d="M27.1,258.542a5.235,5.235,0,0,1,2.069.43v-8.565H21.488a5.052,5.052,0,0,0-2.657-6.7,5.206,5.206,0,0,0-6.815,2.612,5.006,5.006,0,0,0,0,4.089H4.338v18.305a6.155,6.155,0,0,0,6.207,6.1H29.166v-6.531a5.208,5.208,0,0,1-6.816-2.612,5.051,5.051,0,0,1,2.657-6.7A5.225,5.225,0,0,1,27.1,258.542Z" fill="#fdb62f"/>
      <path id="Path_41" data-name="Path 41" d="M4.338,268.712a6.155,6.155,0,0,0,6.207,6.1H29.166v-6.531a5.185,5.185,0,0,1-6.789-2.592,5,5,0,0,1-.434-1.883,45.883,45.883,0,0,1-17.605,3.849v1.055Z" fill="#ffa719"/>
      <path id="Path_42" data-name="Path 42" d="M56.7,271.661l-6.545-17.186-7.189,2.661a5.029,5.029,0,0,1-.068,7.2,5.243,5.243,0,0,1-7.323-.067A5.043,5.043,0,0,1,34.1,260.42l-7.188,2.661,3.062,8.043a5.2,5.2,0,0,0-2.089.313,5.073,5.073,0,0,0-2.959,6.6,5.213,5.213,0,0,0,6.595,2.951,5.143,5.143,0,0,0,1.784-1.12L35.637,286l17.433-6.455A6.1,6.1,0,0,0,56.7,271.661Z" fill="#4398d1"/>
      <path id="Path_43" data-name="Path 43" d="M53.323,262.8c-7.138,10.495-20.519,14.16-28.356,15.422a5.183,5.183,0,0,0,8.336,1.647L35.637,286l17.433-6.455a6.1,6.1,0,0,0,3.628-7.881Z" fill="#3e8fc9"/>
      <path id="Path_44" data-name="Path 44" d="M31.235,233.119a5.226,5.226,0,0,0-2.069.429v-1.476c-7.747,7.01-18.241,10.882-24.828,12.768v5.567h7.678a5.051,5.051,0,0,1,2.657-6.7,5.207,5.207,0,0,1,6.815,2.612,5.006,5.006,0,0,1,0,4.089h7.678V242.86a5.207,5.207,0,0,0,6.815-2.612,5.051,5.051,0,0,0-2.657-6.7A5.219,5.219,0,0,0,31.235,233.119Z" fill="#80a834"/>
      <path id="Path_45" data-name="Path 45" d="M51.943,271.781a2.592,2.592,0,0,0-3.621-.036,2.487,2.487,0,0,0-.036,3.56l.036.035,3.6,3.541a6.155,6.155,0,0,0,6.207,6.1h6.207v-1.017Z" fill="#fec9a3"/>
    </g>
    <g id="Group_8" data-name="Group 8" transform="translate(879 -0.682)" opacity="0.05">
      <path id="Path_46" data-name="Path 46" d="M31-.318,6.357,22.564V59.682H55.643V22.564Z" fill="#e7eced"/>
      <path id="Path_47" data-name="Path 47" d="M38.5,59.682h-15V41.468a7.5,7.5,0,0,1,7.5-7.5h0a7.5,7.5,0,0,1,7.5,7.5Z" fill="#556080"/>
      <path id="Path_48" data-name="Path 48" d="M1,27.539,31-.318,61,27.539" fill="none" stroke="#dd352e" stroke-linecap="round" stroke-miterlimit="10" stroke-width="2"/>
    </g>
    <g id="Group_9" data-name="Group 9" transform="translate(1220 -6)" opacity="0.05">
      <path id="Path_49" data-name="Path 49" d="M9.94,18.533A5.253,5.253,0,0,1,14.736,15c2.89,0,4.97,2.687,5.232,5.889a6.354,6.354,0,0,1-.17,2.225,10.035,10.035,0,0,1-2.759,5L9.94,35,2.961,28.115a10.027,10.027,0,0,1-2.759-5,6.36,6.36,0,0,1-.17-2.226C.294,17.687,2.374,15,5.264,15A5.1,5.1,0,0,1,9.94,18.533Z" fill="#c03a2b"/>
      <path id="Path_50" data-name="Path 50" d="M2.4,21.99a.418.418,0,0,1-.4-.434,4.189,4.189,0,0,1,4-4.348.436.436,0,0,1,0,.869,3.353,3.353,0,0,0-3.2,3.479A.418.418,0,0,1,2.4,21.99Z" fill="#ed7161"/>
    </g>
    <g id="Group_11" data-name="Group 11" transform="translate(1369 -188)" opacity="0.05">
      <path id="Path_51" data-name="Path 51" d="M34.242,251.859a1.034,1.034,0,0,1-.733-1.766l.733-.731a3.116,3.116,0,0,0,.879-2.634l-.147-1.024a5.18,5.18,0,0,1,5.862-5.853,5.2,5.2,0,0,0,4.394-1.462l2.2-2.2a1.036,1.036,0,0,1,1.491,1.438l-.026.025-2.2,2.2a7.279,7.279,0,0,1-6.154,2.048,3.107,3.107,0,0,0-3.516,2.632,3.156,3.156,0,0,0,0,.879l.147,1.024a5.193,5.193,0,0,1-1.466,4.389l-.733.732a1.035,1.035,0,0,1-.732.3Z" fill="#69b9e7"/>
      <path id="Path_52" data-name="Path 52" d="M59.151,276.729a1.034,1.034,0,0,1-.733-1.766l.733-.731a5.216,5.216,0,0,1,4.4-1.463l1.026.146a3.105,3.105,0,0,0,3.517-3.51,7.275,7.275,0,0,1,2.051-6.145l2.2-2.194a1.035,1.035,0,0,1,1.465,1.462l-2.2,2.195a5.2,5.2,0,0,0-1.466,4.389,5.179,5.179,0,0,1-5.861,5.852l-1.026-.146a3.11,3.11,0,0,0-2.636.877l-.733.731a1.028,1.028,0,0,1-.733.3Z" fill="#69b9e7"/>
      <path id="Path_53" data-name="Path 53" d="M45.964,263.991l2.2-27.065L76,234,73.07,261.8Z" fill="#fdb62f"/>
      <path id="Path_54" data-name="Path 54" d="M73.07,261.8l1.889-17.915-.424.359-2.612,2.608a34.007,34.007,0,0,0-8.936,15.764Z" fill="#de4c3b"/>
      <path id="Path_55" data-name="Path 55" d="M48.162,236.926l-.818,10.067a34.075,34.075,0,0,0,15.787-8.922l2.613-2.608.494-.437Z" fill="#69b9e7"/>
      <path id="Path_56" data-name="Path 56" d="M75.394,236.069,43.471,267.943a11.406,11.406,0,0,1-8.93,3.3,9.369,9.369,0,0,0-7.34,2.707,27.715,27.715,0,0,0-7.075,11.99l-2.092,7.312a1.037,1.037,0,0,1-1,.75,1.1,1.1,0,0,1-.285-.039,1.037,1.037,0,0,1-.713-1.279l2.093-7.311a29.8,29.8,0,0,1,7.605-12.888,11.458,11.458,0,0,1,8.962-3.3,9.324,9.324,0,0,0,7.306-2.7L73.5,235.034Z" fill="#69b9e7"/>
      <path id="Path_57" data-name="Path 57" d="M76,234l-1.637.172L46.093,262.4l-.129,1.591,1.595-.129,28.269-28.227Z" fill="#c48412"/>
      <path id="Path_58" data-name="Path 58" d="M73.07,262.831a1.033,1.033,0,0,1-.733-.3L47.429,237.657a1.035,1.035,0,0,1,1.465-1.463L73.8,261.065a1.034,1.034,0,0,1-.732,1.766Z" fill="#c48412"/>
      <path id="Path_59" data-name="Path 59" d="M48.052,238.278l6.174,6.166q.97-.481,1.908-1.021l-6.646-6.636-1.326.139Z" fill="#4298d1"/>
      <path id="Path_60" data-name="Path 60" d="M65.541,255.741l6.174,6.165,1.355-.109.14-1.324-6.647-6.637Q66.02,254.772,65.541,255.741Z" fill="#c94536"/>
      <path id="Path_61" data-name="Path 61" d="M27.007,272.565l-3.474-3.7a1.033,1.033,0,0,1,.048-1.462.919.919,0,0,1,.134-.106l3.137-2.088a1.036,1.036,0,0,1,1.436.286,1,1,0,0,1,.083.15l2.084,4.624Z" fill="#ec9e15"/>
      <path id="Path_62" data-name="Path 62" d="M27.007,272.565l2.084,4.625a1.037,1.037,0,0,0,1.37.519,1.1,1.1,0,0,0,.15-.083l3.137-2.088a1.036,1.036,0,0,0,.181-1.569l-3.474-3.7Z" fill="#ec9e15"/>
      <path id="Path_63" data-name="Path 63" d="M28.736,274.52A3.1,3.1,0,1,1,30.458,274,3.106,3.106,0,0,1,28.736,274.52Z" fill="#fdb62f"/>
      <g id="Group_10" data-name="Group 10">
        <path id="Path_64" data-name="Path 64" d="M22.218,291.931a.985.985,0,0,1-.171-.014,1.035,1.035,0,0,1-.852-1.19l.184-1.1a1.036,1.036,0,0,1,2.048.315l0,.025-.184,1.1a1.035,1.035,0,0,1-1.021.864Z" fill="#fbeebd"/>
        <path id="Path_65" data-name="Path 65" d="M23.253,287.457a1.036,1.036,0,0,1-.98-1.369h0a22.175,22.175,0,0,1,3.259-6.157,1.036,1.036,0,0,1,1.684,1.206l-.026.035a20.15,20.15,0,0,0-2.957,5.585A1.036,1.036,0,0,1,23.253,287.457Z" fill="#fbeebd"/>
        <path id="Path_66" data-name="Path 66" d="M40.867,274.345a1.034,1.034,0,0,1-.464-1.96l.212-.106c.267-.134.532-.271.793-.414a1.035,1.035,0,0,1,.988,1.819c-.282.152-.567.3-.854.445l-.213.106a1.04,1.04,0,0,1-.462.11Z" fill="#fbeebd"/>
        <path id="Path_67" data-name="Path 67" d="M45.011,271.838a1.034,1.034,0,0,1-.615-1.867,26.281,26.281,0,0,0,2.99-2.564,1.035,1.035,0,0,1,1.465,1.462,28.079,28.079,0,0,1-3.227,2.768,1.03,1.03,0,0,1-.613.2Z" fill="#fbeebd"/>
      </g>
    </g>
    <g id="Group_12" data-name="Group 12" transform="translate(145 -37)" opacity="0.05">
      <path id="Path_68" data-name="Path 68" d="M5.263,234.281a2.383,2.383,0,0,1,1.09-3.167,2.316,2.316,0,0,1,1.18-.23,3.976,3.976,0,0,1,7.235-.1,4.065,4.065,0,0,1,.391,1.5,2.309,2.309,0,0,1,2.16,1.317,2.349,2.349,0,0,1-1.075,3.122,2.3,2.3,0,0,1-2.913-.786,3.943,3.943,0,0,1-4.978-.537A2.332,2.332,0,0,1,5.263,234.281Z" fill="url(#linear-gradient)"/>
      <ellipse id="Ellipse_5" data-name="Ellipse 5" cx="1.96" cy="1.982" rx="1.96" ry="1.982" transform="translate(3.893 226)" fill="url(#linear-gradient-2)"/>
      <path id="Path_69" data-name="Path 69" d="M17.5,245.945H12.77a1.217,1.217,0,0,1-1.211-1.224V237.1a1.218,1.218,0,0,1,1.211-1.225H17.5a1.218,1.218,0,0,1,1.211,1.225v7.624A1.217,1.217,0,0,1,17.5,245.945Z" fill="url(#linear-gradient-3)"/>
      <rect id="Rectangle_1" data-name="Rectangle 1" width="14.118" height="18.317" transform="translate(1.882 267.683)" fill="url(#linear-gradient-4)"/>
      <path id="Path_70" data-name="Path 70" d="M16.588,271.608H1.914a.9.9,0,0,1-.857-1.169l1.456-4.849a.9.9,0,0,1,.857-.643H16.588v6.661Z" fill="url(#linear-gradient-5)"/>
      <rect id="Rectangle_2" data-name="Rectangle 2" width="14.118" height="18.317" transform="translate(44 267.683)" fill="url(#linear-gradient-6)"/>
      <path id="Path_71" data-name="Path 71" d="M58.118,281.2l-9.485-9.59H44V286H58.118Z" fill="url(#linear-gradient-7)"/>
      <path id="Path_72" data-name="Path 72" d="M43.412,271.608H58.086a.9.9,0,0,0,.857-1.169l-1.456-4.849a.9.9,0,0,0-.857-.643H43.412Z" fill="url(#linear-gradient-8)"/>
      <path id="Path_73" data-name="Path 73" d="M48.64,248.1V286H11.365V248.1L30,229.631Z" fill="url(#linear-gradient-9)"/>
      <path id="Path_74" data-name="Path 74" d="M11.365,248.1v2.171L46.7,286H48.64V248.1L30,229.631Z" fill="url(#linear-gradient-10)"/>
      <path id="Path_75" data-name="Path 75" d="M48.64,259.556V286H36.872L11.365,260.212v-.656Z" fill="url(#linear-gradient-11)"/>
      <path id="Path_76" data-name="Path 76" d="M42.88,286H24.65L14.629,275.868a1.626,1.626,0,0,1-.735-1.36v-8.154a1.615,1.615,0,0,1,1.6-1.621h5.815a1.6,1.6,0,0,1,1.347.743l-.044.035Z" fill="url(#linear-gradient-12)"/>
      <path id="Path_77" data-name="Path 77" d="M21.312,275.179H15.5a.668.668,0,0,1-.664-.671v-8.153a.667.667,0,0,1,.664-.671h5.814a.667.667,0,0,1,.664.671v8.153A.668.668,0,0,1,21.312,275.179Z" fill="#503837"/>
      <path id="Path_78" data-name="Path 78" d="M21.312,276.129H15.5a1.615,1.615,0,0,1-1.6-1.621v-8.153a1.615,1.615,0,0,1,1.6-1.621h5.814a1.615,1.615,0,0,1,1.6,1.621v8.153A1.615,1.615,0,0,1,21.312,276.129Zm-5.538-1.9h5.262v-7.6H15.774Z" fill="#fff"/>
      <path id="Path_79" data-name="Path 79" d="M48.641,268.1V286h-.572L38.048,275.868a1.625,1.625,0,0,1-.736-1.36v-8.154a1.615,1.615,0,0,1,1.6-1.621H44.73a1.6,1.6,0,0,1,1.346.743l.023.019-.015.016Z" fill="url(#linear-gradient-13)"/>
      <path id="Path_80" data-name="Path 80" d="M44.73,275.179H38.916a.668.668,0,0,1-.664-.671v-8.153a.667.667,0,0,1,.664-.671H44.73a.667.667,0,0,1,.664.671v8.153A.668.668,0,0,1,44.73,275.179Z" fill="#503837"/>
      <path id="Path_81" data-name="Path 81" d="M44.73,276.129H38.916a1.615,1.615,0,0,1-1.6-1.621v-8.153a1.615,1.615,0,0,1,1.6-1.621H44.73a1.615,1.615,0,0,1,1.6,1.621v8.153A1.615,1.615,0,0,1,44.73,276.129Zm-5.538-1.9h5.262v-7.6H39.192Z" fill="#fff"/>
      <path id="Path_82" data-name="Path 82" d="M26.118,286V265.412a1.635,1.635,0,0,1,1.627-1.644h4.516a1.635,1.635,0,0,1,1.626,1.644V286Z" fill="#816965"/>
      <path id="Path_83" data-name="Path 83" d="M34.849,286H32.925V265.972a1.229,1.229,0,0,0-1.219-1.232H28.3a1.226,1.226,0,0,0-1.219,1.232V286H25.157V264.686a1.881,1.881,0,0,1,1.87-1.891h5.951a1.882,1.882,0,0,1,1.871,1.891V286Z" fill="#503837"/>
      <ellipse id="Ellipse_6" data-name="Ellipse 6" cx="0.877" cy="0.887" rx="0.877" ry="0.887" transform="translate(27.748 270.609)" fill="#fff"/>
      <rect id="Rectangle_3" data-name="Rectangle 3" width="37.278" height="5.188" transform="translate(11.364 280.811)" fill="#654e48"/>
      <path id="Path_84" data-name="Path 84" d="M10.955,283.972A5.583,5.583,0,0,1,10.577,286H.379a5.612,5.612,0,0,1-.019-4.005,5.459,5.459,0,0,1,10.236,0A5.586,5.586,0,0,1,10.955,283.972Z" fill="url(#linear-gradient-14)"/>
      <path id="Path_85" data-name="Path 85" d="M14.488,284.529a4.026,4.026,0,0,1-.275,1.47h-7.4a4.078,4.078,0,0,1-.013-2.9,3.959,3.959,0,0,1,7.425,0A4.057,4.057,0,0,1,14.488,284.529Z" fill="url(#linear-gradient-15)"/>
      <path id="Path_86" data-name="Path 86" d="M60,283.636A6.5,6.5,0,0,1,59.559,286H47.671a6.539,6.539,0,0,1-.022-4.669,6.363,6.363,0,0,1,11.931,0A6.478,6.478,0,0,1,60,283.636Z" fill="url(#linear-gradient-16)"/>
      <path id="Path_87" data-name="Path 87" d="M48.64,253.524v20.085L24.662,249.367a1.641,1.641,0,0,1-.787-1.4v-4.554A6.166,6.166,0,0,1,30,237.221a6.086,6.086,0,0,1,4.6,2.1Z" fill="url(#linear-gradient-17)"/>
      <path id="Path_88" data-name="Path 88" d="M45.908,251.57H14.575a1.364,1.364,0,0,0-1.355,1.37v6.081h.941V252.94a.417.417,0,0,1,.414-.419h1.874v6.5h.941v-6.5h2.8v6.5h.941v-6.5h2.8v6.5h.941v-6.5h2.8v6.5H28.6v-6.5h2.8v6.5h.941v-6.5h2.8v6.5h.941v-6.5h2.8v6.5h.941v-6.5h2.8v6.5h.941v-6.5h2.358a.417.417,0,0,1,.414.419v6.081h.941V252.94A1.364,1.364,0,0,0,45.908,251.57Z" fill="#654e48"/>
      <path id="Path_89" data-name="Path 89" d="M49.413,258.034v3.051a.817.817,0,0,1-.812.821H11.4a.817.817,0,0,1-.812-.821v-3.051a.817.817,0,0,1,.812-.821H48.6A.817.817,0,0,1,49.413,258.034Z" fill="url(#linear-gradient-18)"/>
      <path id="Path_90" data-name="Path 90" d="M55.314,251.406,31.245,227.065a1.744,1.744,0,0,0-2.484,0L4.686,251.4a1.173,1.173,0,0,0,0,1.644l1.026,1.037a1.141,1.141,0,0,0,1.626,0L29.676,231.5a.458.458,0,0,1,.654,0l22.332,22.586a1.143,1.143,0,0,0,1.626,0l1.026-1.038A1.172,1.172,0,0,0,55.314,251.406Z" fill="url(#linear-gradient-19)"/>
      <path id="Path_91" data-name="Path 91" d="M31.245,227.065a1.743,1.743,0,0,0-1.242-.52v4.819a.46.46,0,0,1,.327.137l22.332,22.586a1.141,1.141,0,0,0,1.626,0l1.026-1.037a1.172,1.172,0,0,0,0-1.643Z" fill="url(#linear-gradient-20)"/>
      <path id="Path_92" data-name="Path 92" d="M34.5,248.615H25.5a.647.647,0,0,1-.643-.65v-4.553a5.176,5.176,0,0,1,5.147-5.2h0a5.176,5.176,0,0,1,5.147,5.2v4.553A.647.647,0,0,1,34.5,248.615Z" fill="#654e48"/>
      <path id="Path_93" data-name="Path 93" d="M30,237.22a6.165,6.165,0,0,0-6.124,6.192v4.553A1.631,1.631,0,0,0,25.5,249.6H34.5a1.631,1.631,0,0,0,1.62-1.638v-4.553A6.165,6.165,0,0,0,30,237.22Zm4.136,5.665H30.977v-3.571A4.21,4.21,0,0,1,34.136,242.885Zm-5.113-3.571v3.571H25.864A4.21,4.21,0,0,1,29.023,239.314Zm-3.193,5.547h3.193v2.766H25.83Zm5.147,2.766v-2.766H34.17v2.766Z" fill="#fff"/>
    </g>
    <g id="Group_16" data-name="Group 16" transform="translate(135 -197)" opacity="0.05">
      <path id="Path_94" data-name="Path 94" d="M54.978,238.184H0s.047,32.85,0,34.668v.047a6.683,6.683,0,0,0,6.667,6.509H35.708a.878.878,0,0,0,.623-.259L55.6,259.817a.887.887,0,0,0,.258-.625V239.068A.882.882,0,0,0,54.978,238.184Z" fill="#e0e0e2"/>
      <g id="Group_13" data-name="Group 13">
        <path id="Path_95" data-name="Path 95" d="M15.933,261.285h3.6l2.886-9.084,13.972-14.017H33.1L19.129,252.2Z" fill="#c6c5ca"/>
        <path id="Path_96" data-name="Path 96" d="M54.978,238.184H52.043v25.2l3.558-3.569a.887.887,0,0,0,.258-.625V239.068A.882.882,0,0,0,54.978,238.184Z" fill="#c6c5ca"/>
      </g>
      <path id="Path_97" data-name="Path 97" d="M40.126,262.009H15.737a.884.884,0,0,1,0-1.767H40.126a.884.884,0,0,1,0,1.767Z" fill="#3c5156"/>
      <path id="Path_98" data-name="Path 98" d="M6.692,265.849a6.829,6.829,0,0,1,1.115.093v-36.5a.882.882,0,0,0-.881-.883A6.945,6.945,0,0,0,0,235.509V271.7A6.765,6.765,0,0,1,6.692,265.849Z" fill="#919191"/>
      <path id="Path_99" data-name="Path 99" d="M47.807,237.341l-5.289-5.306a.88.88,0,0,0-1.245,0L21.794,251.576c-.012.012-.022.025-.033.037l6.629,6.456,19.417-19.478A.886.886,0,0,0,47.807,237.341Z" fill="#ffd039"/>
      <path id="Path_100" data-name="Path 100" d="M25.971,255.713l2.419,2.357,19.417-19.479a.886.886,0,0,0,0-1.25l-1.763-1.768Z" fill="#ffa304"/>
      <path id="Path_101" data-name="Path 101" d="M21.763,251.615a.881.881,0,0,0-.18.3L18.7,260.108a.882.882,0,0,0,.83,1.177.871.871,0,0,0,.293-.05l8.166-2.892a.892.892,0,0,0,.393-.281Z" fill="#ffc89f"/>
      <path id="Path_102" data-name="Path 102" d="M19.531,261.285a.867.867,0,0,0,.293-.05l8.166-2.892a.886.886,0,0,0,.393-.281l-2.415-2.352-6.547,2.351-.72,2.047a.883.883,0,0,0,.83,1.177Z" fill="#f7b081"/>
      <path id="Path_103" data-name="Path 103" d="M19.531,261.285a.867.867,0,0,0,.293-.05l5.15-1.824-4.464-4.446L18.7,260.108a.883.883,0,0,0,.83,1.177Z" fill="#3c5156"/>
      <path id="Path_104" data-name="Path 104" d="M22.507,256.953l-3.086,1.108-.72,2.047a.883.883,0,0,0,.83,1.177.867.867,0,0,0,.293-.05l5.15-1.824Z" fill="#304144"/>
      <path id="Path_105" data-name="Path 105" d="M50.668,234.471l-5.289-5.306a.878.878,0,0,0-1.245,0l-3.482,3.493,6.532,6.558,3.484-3.5a.885.885,0,0,0,0-1.249Z" fill="#ff6137"/>
      <path id="Path_106" data-name="Path 106" d="M44.8,236.822l.827.831,1.557,1.562,3.484-3.495a.885.885,0,0,0,0-1.249L48.906,232.7Z" fill="#e04f32"/>
      <path id="Path_107" data-name="Path 107" d="M53.036,229.535,50.3,226.789a2.68,2.68,0,0,0-3.8,0l-1.743,1.75-.624.626-.635.636,6.546,6.544.935-.938,2.056-2.062a2.7,2.7,0,0,0,0-3.81Z" fill="#546f7a"/>
      <g id="Group_14" data-name="Group 14">
        <path id="Path_108" data-name="Path 108" d="M43.51,229.791l-.011.011,1.953,1.952Z" fill="#475d63"/>
        <path id="Path_109" data-name="Path 109" d="M53.036,229.535l-2.16-2.167a2.749,2.749,0,0,1-.239,3.57l-2.056,2.085-.922.936,2.387,2.386.935-.938,2.055-2.062a2.7,2.7,0,0,0,0-3.81Z" fill="#475d63"/>
      </g>
      <path id="Path_110" data-name="Path 110" d="M59.456,254.221a.88.88,0,0,0-.96.192L28.514,284.492A.884.884,0,0,0,29.136,286H59.119a.882.882,0,0,0,.881-.883V255.038A.885.885,0,0,0,59.456,254.221ZM43.129,278.854l9.624-9.655v9.655Z" fill="#ffca10"/>
      <path id="Path_111" data-name="Path 111" d="M59.456,254.221a.88.88,0,0,0-.96.192l-2.312,2.32V286h2.935a.882.882,0,0,0,.881-.883V255.038A.885.885,0,0,0,59.456,254.221Z" fill="#ffa304"/>
      <g id="Group_15" data-name="Group 15">
        <path id="Path_112" data-name="Path 112" d="M60,264.965H56.614a.884.884,0,0,0,0,1.767H60Z" fill="#c96e14"/>
        <path id="Path_113" data-name="Path 113" d="M60,269.394H56.614a.884.884,0,0,0,0,1.767H60Z" fill="#c96e14"/>
        <path id="Path_114" data-name="Path 114" d="M60,273.823H56.614a.884.884,0,0,0,0,1.767H60Z" fill="#c96e14"/>
        <path id="Path_115" data-name="Path 115" d="M60,278.253H56.614a.884.884,0,0,0,0,1.767H60Z" fill="#c96e14"/>
      </g>
    </g>
    <g id="Group_18" data-name="Group 18" transform="translate(1276 -142.525)" opacity="0.05">
      <path id="Path_116" data-name="Path 116" d="M58.793,244.186H0v33.782c0,4.726,3.375,8.557,7.538,8.557H58.793A1.3,1.3,0,0,0,60,285.155v-39.6A1.3,1.3,0,0,0,58.793,244.186Z" fill="#64bdff"/>
      <path id="Path_117" data-name="Path 117" d="M60,245.557v39.6a1.3,1.3,0,0,1-1.207,1.37H55.749a1.3,1.3,0,0,0,1.207-1.37v-39.6a1.3,1.3,0,0,0-1.207-1.371h3.044A1.3,1.3,0,0,1,60,245.557Z" fill="#43a3f9"/>
      <g id="Group_17" data-name="Group 17">
        <path id="Path_118" data-name="Path 118" d="M10.606,267.5A1.3,1.3,0,0,1,9.4,268.868H7.538C3.375,268.868,0,272.7,0,277.425V235.082c0-4.725,3.375-8.557,7.538-8.557H9.4a1.3,1.3,0,0,1,1.207,1.371Z" fill="#1685fb"/>
        <path id="Path_119" data-name="Path 119" d="M54.37,261.912c0-4.358-3.123-7.9-6.962-7.9-3.7,0-6.732,3.291-6.949,7.429H36.292a.971.971,0,0,0-.9,1.027v11.741a.973.973,0,0,0,.9,1.028H46.634a.973.973,0,0,0,.906-1.028v-4.395C51.318,269.731,54.37,266.22,54.37,261.912Zm-6.962-5.848c2.841,0,5.152,2.624,5.152,5.848,0,3.174-2.24,5.764-5.02,5.844v-5.291a.971.971,0,0,0-.906-1.027H42.275C42.489,258.435,44.708,256.064,47.408,256.064Zm-1.679,11.375a5.628,5.628,0,0,1-3.28-3.946h3.28ZM37.2,273.178v-9.685h3.389a7.568,7.568,0,0,0,5.143,6.089v3.6Z" fill="#1685fb"/>
        <path id="Path_120" data-name="Path 120" d="M52.786,270.525H50.771a1.036,1.036,0,0,0,0,2.055h2.015a1.036,1.036,0,0,0,0-2.055Z" fill="#1685fb"/>
        <path id="Path_121" data-name="Path 121" d="M52.786,273.178H50.771a1.036,1.036,0,0,0,0,2.055h2.015a1.036,1.036,0,0,0,0-2.055Z" fill="#1685fb"/>
        <path id="Path_122" data-name="Path 122" d="M15.634,253.6h1.448a1.036,1.036,0,0,0,0-2.056H15.634a1.036,1.036,0,0,0,0,2.056Z" fill="#1685fb"/>
        <path id="Path_123" data-name="Path 123" d="M15.634,256.594h6.989a1.036,1.036,0,0,0,0-2.055H15.634a1.036,1.036,0,0,0,0,2.055Z" fill="#1685fb"/>
        <path id="Path_124" data-name="Path 124" d="M21.174,253.6h1.449a1.036,1.036,0,0,0,0-2.056H21.174a1.036,1.036,0,0,0,0,2.056Z" fill="#1685fb"/>
        <path id="Path_125" data-name="Path 125" d="M26.715,253.6h1.449a1.036,1.036,0,0,0,0-2.056H26.715a1.036,1.036,0,0,0,0,2.056Z" fill="#1685fb"/>
        <path id="Path_126" data-name="Path 126" d="M15.634,259.566h6.989a1.036,1.036,0,0,0,0-2.056H15.634a1.036,1.036,0,0,0,0,2.056Z" fill="#1685fb"/>
        <path id="Path_127" data-name="Path 127" d="M15.634,262.538H26.715a1.036,1.036,0,0,0,0-2.056H15.634a1.036,1.036,0,0,0,0,2.056Z" fill="#1685fb"/>
        <path id="Path_128" data-name="Path 128" d="M15.634,265.509h12.53a1.036,1.036,0,0,0,0-2.055H15.634a1.036,1.036,0,0,0,0,2.055Z" fill="#1685fb"/>
        <path id="Path_129" data-name="Path 129" d="M18.129,268.242H15.634a.972.972,0,0,0-.9,1.028V272.1a.972.972,0,0,0,.9,1.028h2.495a.973.973,0,0,0,.905-1.028V269.27A.972.972,0,0,0,18.129,268.242Zm-.906,2.832h-.684V270.3h.684Z" fill="#1685fb"/>
        <path id="Path_130" data-name="Path 130" d="M24.115,268.242H21.62a.972.972,0,0,0-.905,1.028V272.1a.972.972,0,0,0,.905,1.028h2.495a.973.973,0,0,0,.905-1.028V269.27A.972.972,0,0,0,24.115,268.242Zm-.905,2.832h-.684V270.3h.684Z" fill="#1685fb"/>
        <path id="Path_131" data-name="Path 131" d="M30.1,268.242h-2.5a.972.972,0,0,0-.905,1.028V272.1a.972.972,0,0,0,.905,1.028h2.5a.973.973,0,0,0,.905-1.028V269.27A.972.972,0,0,0,30.1,268.242Zm-.906,2.832h-.684V270.3H29.2Z" fill="#1685fb"/>
        <path id="Path_132" data-name="Path 132" d="M18.129,275.459H15.634a.972.972,0,0,0-.9,1.028v2.832a.972.972,0,0,0,.9,1.028h2.495a.972.972,0,0,0,.905-1.028v-2.832A.972.972,0,0,0,18.129,275.459Zm-.906,2.832h-.684v-.776h.684Z" fill="#1685fb"/>
        <path id="Path_133" data-name="Path 133" d="M24.115,275.459H21.62a.972.972,0,0,0-.905,1.028v2.832a.972.972,0,0,0,.905,1.028h2.495a.972.972,0,0,0,.905-1.028v-2.832A.972.972,0,0,0,24.115,275.459Zm-.905,2.832h-.684v-.776h.684Z" fill="#1685fb"/>
        <path id="Path_134" data-name="Path 134" d="M30.1,275.459h-2.5a.972.972,0,0,0-.905,1.028v2.832a.972.972,0,0,0,.905,1.028h2.5a.972.972,0,0,0,.905-1.028v-2.832A.972.972,0,0,0,30.1,275.459Zm-.906,2.832h-.684v-.776H29.2Z" fill="#1685fb"/>
      </g>
      <path id="Path_135" data-name="Path 135" d="M37.784,255.16,33.9,257.354c-.434.245-.908-.239-.74-.755l1.506-4.622Z" fill="#4e7693"/>
      <path id="Path_136" data-name="Path 136" d="M38.62,254.889l15.6-19.717a1.109,1.109,0,0,0-.068-1.429l-2.483-2.531a.818.818,0,0,0-1.258.077l-15.6,19.716a1.109,1.109,0,0,0,.068,1.429l2.482,2.532A.819.819,0,0,0,38.62,254.889Z" fill="#c0ff66"/>
      <path id="Path_137" data-name="Path 137" d="M38.62,254.889l15.6-19.717a1.109,1.109,0,0,0-.068-1.429l-1.241-1.265L36.12,253.7l1.241,1.266A.819.819,0,0,0,38.62,254.889Z" fill="#9be058"/>
      <path id="Path_138" data-name="Path 138" d="M52.533,237.308l1.69-2.135a1.11,1.11,0,0,0-.068-1.429l-2.483-2.532a.818.818,0,0,0-1.258.077l-1.691,2.135Z" fill="#fd82ac"/>
    </g>
    <g id="Group_19" data-name="Group 19" transform="translate(227.455 -226)" opacity="0.05">
      <path id="Path_139" data-name="Path 139" d="M84.42,266.8H65.67l18.75-38.4Z" fill="#8690c3"/>
      <path id="Path_140" data-name="Path 140" d="M84.42,269.2H65.67a1.863,1.863,0,0,1-1.64-1.237,2.99,2.99,0,0,1,.05-2.435l18.75-38.4a1.709,1.709,0,0,1,2.107-1.035,2.393,2.393,0,0,1,1.358,2.307v38.4a2.187,2.187,0,0,1-1.875,2.4Zm-15.367-4.8H82.545V236.769Z" fill="#5c128d"/>
      <path id="Path_141" data-name="Path 141" d="M63.795,247.6H39.42l16.875-19.2Z" fill="#26deeb"/>
      <path id="Path_142" data-name="Path 142" d="M63.795,250H39.42a1.952,1.952,0,0,1-1.752-1.547,2.873,2.873,0,0,1,.507-2.647l16.874-19.2a1.6,1.6,0,0,1,1.6-.563,2.007,2.007,0,0,1,1.322,1.284l7.5,19.2a2.992,2.992,0,0,1-.082,2.336A1.831,1.831,0,0,1,63.795,250Zm-19.443-4.8H60.761l-5.049-12.926Z" fill="#5c128d"/>
      <path id="Path_143" data-name="Path 143" d="M95.67,252.4l-45,14.4v16.8H84.42Z" fill="#26deeb"/>
      <path id="Path_144" data-name="Path 144" d="M84.42,286H50.67a2.187,2.187,0,0,1-1.875-2.4V266.8a2.367,2.367,0,0,1,1.421-2.329l45-14.4a1.658,1.658,0,0,1,1.9.8,2.956,2.956,0,0,1,.259,2.537l-11.25,31.2a1.91,1.91,0,0,1-1.7,1.4Zm-31.875-4.8H83.22l9.107-25.257-39.782,12.73Z" fill="#5c128d"/>
      <path id="Path_145" data-name="Path 145" d="M67.545,262,50.67,283.6v-36H61.92Z" fill="#8690c3"/>
      <path id="Path_146" data-name="Path 146" d="M50.67,286a1.522,1.522,0,0,1-.717-.183,2.482,2.482,0,0,1-1.158-2.217v-36a2.187,2.187,0,0,1,1.875-2.4H61.92a1.888,1.888,0,0,1,1.677,1.326l5.625,14.4a2.918,2.918,0,0,1-.351,2.771L52,285.3a1.693,1.693,0,0,1-1.326.7Zm1.875-36v27.806l12.719-16.28L60.761,250Z" fill="#5c128d"/>
    </g>
    <g id="Group_20" data-name="Group 20" transform="translate(138.256 -110.501)" opacity="0.05">
      <path id="Path_147" data-name="Path 147" d="M168.338,229.286s12.639,6.112,6.921,12.224l-12.55-6.725,2.664-3.348Z" fill="#fece34"/>
      <path id="Path_148" data-name="Path 148" d="M167.118,233.287s10.588,4.783,8.141,8.225l-12.55-6.727Z" fill="#fd9d27"/>
      <path id="Path_149" data-name="Path 149" d="M172.663,253.848c0-7.247-7.381-10.164-13.312-12.508-5.648-2.232-8.843-3.652-8.843-6.867.006-2.725,2.884-4.968,6.545-5.1-.8,2.324,1.087,4.689,4.212,5.283s6.306-.809,7.1-3.132c.591-1.723-.288-3.539-2.22-4.585-5.591-3.605-14.053-3.158-18.9,1a8.649,8.649,0,0,0-3.276,6.537c0,6.291,6.826,8.989,12.311,11.157,4.21,1.666,7.295,2.985,8.8,5,0,0-27.921-7.092-48.344,6.655,6.246.6,11.908,3.036,15.726,6.76,10.129,10.068,41.66,9.11,40.193-10.195Z" fill="#fd7295"/>
      <path id="Path_150" data-name="Path 150" d="M156.655,294.5h-3.3c-.833,0-1.508-.5-1.508-1.121V270.32c0-.619.675-1.121,1.508-1.121s1.508.5,1.508,1.121v21.939h1.795c.833,0,1.508.5,1.508,1.121S157.488,294.5,156.655,294.5Z" fill="#fd9d27"/>
      <path id="Path_151" data-name="Path 151" d="M166.614,282.732a1.835,1.835,0,0,1-.964-.261l-1.786-1.105H143.441c-.832,0-1.506-.5-1.5-1.123a.879.879,0,0,1,.125-.445l5.778-9.882a1.742,1.742,0,0,1,1.986-.579c.764.247,1.113.908.78,1.476l-4.863,8.311h18.668a1.85,1.85,0,0,1,.965.26l2.2,1.365a.938.938,0,0,1,.193,1.579,1.756,1.756,0,0,1-1.159.4Z" fill="#fece34"/>
      <path id="Path_152" data-name="Path 152" d="M152.014,249.913a50.807,50.807,0,0,0-22.227-4.293,14.66,14.66,0,0,1,5.708,8.05c.822,3.529,3.8,6.575,8.056,8.248,10.354,3.874,18.455-7.636,8.463-12.005Z" fill="#f6a4bd"/>
    </g>
    <g id="Group_21" data-name="Group 21" transform="translate(350.932 -81)" opacity="0.05">
      <path id="Path_153" data-name="Path 153" d="M85.343,257.112a28.964,28.964,0,0,1,5.592,13.179,1.065,1.065,0,0,1-1.563.936,38.393,38.393,0,0,1-5.825-3.015l-2.917-16.4a36.254,36.254,0,0,1,4.713,5.3Z" fill="#5d5360"/>
      <path id="Path_154" data-name="Path 154" d="M38.794,257.112A28.95,28.95,0,0,0,33.2,270.291a1.065,1.065,0,0,0,1.563.936,38.44,38.44,0,0,0,5.825-3.015l2.917-16.4a36.2,36.2,0,0,0-4.714,5.3Z" fill="#4b3f4e"/>
      <path id="Path_155" data-name="Path 155" d="M38.461,265.271a19.521,19.521,0,0,1,7.968-16.306,5.9,5.9,0,0,0,2.223-6.5,10.7,10.7,0,0,1-.544-3.37c0-7.189,7.1-12.927,15.5-12.14,6.18.58,11.284,4.82,12.244,10.192a10.767,10.767,0,0,1-.313,5.139,6.069,6.069,0,0,0,2.179,6.692,19.613,19.613,0,0,1,7.973,15.48c0,11.413-10.577,20.666-23.625,20.666s-23.626-9.253-23.626-20.666" fill="#5d5360"/>
      <path id="Path_156" data-name="Path 156" d="M67.113,234.869a5.061,5.061,0,0,0-4.243,1.891,1.03,1.03,0,0,1-1.6,0,5.061,5.061,0,0,0-4.243-1.891,4.63,4.63,0,0,0-4.6,4.791c.334,4.4,4.524,7.886,9.644,7.886s9.309-3.482,9.643-7.886a4.63,4.63,0,0,0-4.6-4.791Z" fill="#eceaec"/>
      <path id="Path_157" data-name="Path 157" d="M38.461,265.271c0-.107,0-.212,0-.319,0-.166-.014-.331-.014-.5Z" fill="#4b3f4e"/>
      <path id="Path_158" data-name="Path 158" d="M42.753,264.952c0,.107,0,.212,0,.319l-.018-.816c0,.166.01.331.015.5a19.551,19.551,0,0,1,7.971-15.987,5.894,5.894,0,0,0,2.224-6.5,10.7,10.7,0,0,1-.545-3.37c0-6.113,5.142-11.161,11.845-12.056-.212-.029-.422-.064-.637-.084-8.4-.787-15.5,4.951-15.5,12.14a10.7,10.7,0,0,0,.544,3.37,5.9,5.9,0,0,1-2.223,6.5,19.552,19.552,0,0,0-7.972,15.987c.3,11.183,10.754,20.169,23.612,20.169.724,0,1.44-.033,2.147-.089-11.854-.935-21.178-9.527-21.463-20.08Z" fill="#4b3f4e"/>
      <path id="Path_159" data-name="Path 159" d="M59.964,241.334l1.36,1.586a1.014,1.014,0,0,0,1.489,0l1.36-1.586a.812.812,0,0,0-.745-1.3H60.709A.812.812,0,0,0,59.964,241.334Z" fill="#ffa95f"/>
      <path id="Path_160" data-name="Path 160" d="M62.069,285.121c8.653,0,16.215-4.072,20.331-10.142C81.059,261.612,72.522,251.3,62.184,251.3h-.115c-10.378,0-18.94,10.388-20.231,23.83,4.138,5.986,11.65,9.988,20.231,9.988Z" fill="#eceaec"/>
      <path id="Path_161" data-name="Path 161" d="M51.79,281.876a3.868,3.868,0,0,1,.424-.9,20.539,20.539,0,0,1-9.034-12.652,34.791,34.791,0,0,0-1.338,6.765,22.869,22.869,0,0,0,9.755,7.883,4.238,4.238,0,0,1,.193-1.1Z" fill="#dad8db"/>
      <path id="Path_162" data-name="Path 162" d="M49.182,280.424c-2.966,0-5.37,2.1-5.37,4.7H54.551C54.551,282.527,52.147,280.424,49.182,280.424Z" fill="#ffa95f"/>
      <path id="Path_163" data-name="Path 163" d="M74.955,280.424c-2.965,0-5.369,2.1-5.369,4.7H80.325c0-2.594-2.4-4.7-5.37-4.7Z" fill="#ffa95f"/>
      <path id="Path_164" data-name="Path 164" d="M66.9,233.986a6.1,6.1,0,0,0-4.832,2.244,6.1,6.1,0,0,0-4.833-2.244,6.638,6.638,0,0,0-1.189.106.888.888,0,0,0-.78,1.038,1.011,1.011,0,0,0,1.188.683,4.413,4.413,0,0,1,.781-.07,3.616,3.616,0,0,1,3.828,3.349c0,.02,0,.04,0,.06h-.358a1.969,1.969,0,0,0-1.731.936,1.511,1.511,0,0,0,.182,1.773l1.36,1.586a2.109,2.109,0,0,0,3.1,0l1.36-1.586a1.511,1.511,0,0,0,.182-1.773,1.97,1.97,0,0,0-1.731-.936H63.07c0-.02,0-.04,0-.06a3.862,3.862,0,0,1,7.656,0c0,4.177-3.885,7.575-8.661,7.575s-8.66-3.4-8.66-7.575a2.975,2.975,0,0,1,.282-1.266.845.845,0,0,0-.55-1.146,1.059,1.059,0,0,0-1.31.481,4.541,4.541,0,0,0-.432,1.931c0,5.146,4.787,9.333,10.67,9.333s10.67-4.187,10.67-9.333c0-2.816-2.618-5.106-5.837-5.106Zm-4.832,8.338-1.213-1.414h2.425Z"/>
      <path id="Path_165" data-name="Path 165" d="M58.25,239.092a.948.948,0,0,0-1-.879h-.01a.943.943,0,0,0-1,.879,1.016,1.016,0,0,0,2.014,0Z"/>
      <path id="Path_166" data-name="Path 166" d="M67.906,239.092a.948.948,0,0,0-1-.879h-.01a.943.943,0,0,0-1,.879,1.016,1.016,0,0,0,2.014,0Z"/>
      <path id="Path_167" data-name="Path 167" d="M85.931,256.285A39.15,39.15,0,0,0,81.3,251a23.2,23.2,0,0,0-2.914-2.683,5.233,5.233,0,0,1-1.875-5.8,11.52,11.52,0,0,0,.335-5.506,12.631,12.631,0,0,0-4.464-7.394,15.99,15.99,0,0,0-8.665-3.536,16.272,16.272,0,0,0-11.649,3.274,12.449,12.449,0,0,0-4.966,9.74,11.471,11.471,0,0,0,.584,3.614,5.077,5.077,0,0,1-1.924,5.6,23.291,23.291,0,0,0-2.968,2.732,39.111,39.111,0,0,0-4.589,5.247c-3.732,5.122-5.912,10.675-6.137,15.636a.854.854,0,0,0,.464.776,1.127,1.127,0,0,0,1,.04,29.674,29.674,0,0,0,4.747-2.714,21.419,21.419,0,0,0,7.38,10.453,5.434,5.434,0,0,0-2.853,4.645.949.949,0,0,0,1.005.879H54.551a.967.967,0,0,0,1-.771,27.392,27.392,0,0,0,4.951.728q.792.043,1.579.043a27.866,27.866,0,0,0,6.513-.764.97.97,0,0,0,1,.764H80.325a.948.948,0,0,0,1-.879,5.427,5.427,0,0,0-2.817-4.625,21.193,21.193,0,0,0,7.355-10.467,29.7,29.7,0,0,0,4.737,2.708,1.127,1.127,0,0,0,1-.04.854.854,0,0,0,.464-.776c-.225-4.961-2.4-10.514-6.137-15.636Zm-51.71,14.1a27.412,27.412,0,0,1,3.686-10.113,19.054,19.054,0,0,0-.45,5.038,18.622,18.622,0,0,0,.337,2.793A29.667,29.667,0,0,1,34.221,270.38Zm10.713,13.862a4.54,4.54,0,0,1,8.5,0Zm25.773,0a4.54,4.54,0,0,1,8.5,0Zm12.3-12.284a31.765,31.765,0,0,0-2.84-8.9,25.237,25.237,0,0,0-6.8-8.561,1.108,1.108,0,0,0-1.419.065.8.8,0,0,0,.073,1.241c5.184,4.088,8.667,11.192,9.322,19.008a20.927,20.927,0,0,1-4.874,4.893,7.227,7.227,0,0,0-1.522-.162,6.375,6.375,0,0,0-6.029,3.771,25.7,25.7,0,0,1-8.3.886,25.017,25.017,0,0,1-5.416-.9,6.379,6.379,0,0,0-6.025-3.76,7.218,7.218,0,0,0-1.477.153,21.209,21.209,0,0,1-4.915-4.936,28.6,28.6,0,0,1,6.4-16.14c3.562-4.152,8.136-6.44,12.881-6.44a15.2,15.2,0,0,1,6.4,1.429,1.082,1.082,0,0,0,1.358-.368.828.828,0,0,0-.421-1.187,17.41,17.41,0,0,0-7.341-1.631c-10.235,0-18.874,9.055-20.94,21.484a17.445,17.445,0,0,1-1.664-6.671,18.676,18.676,0,0,1,7.629-15.615,6.705,6.705,0,0,0,2.523-7.4,9.936,9.936,0,0,1-.5-3.126,10.781,10.781,0,0,1,4.3-8.433A14.092,14.092,0,0,1,63.5,227.826a13.832,13.832,0,0,1,7.5,3.062,10.926,10.926,0,0,1,3.864,6.392,9.986,9.986,0,0,1-.289,4.772,6.848,6.848,0,0,0,2.482,7.581,18.828,18.828,0,0,1,7.634,14.822,17.638,17.638,0,0,1-1.678,7.5Zm3.337-3.856a18.937,18.937,0,0,0-.124-7.844,27.414,27.414,0,0,1,3.692,10.122A29.7,29.7,0,0,1,86.348,268.1Z"/>
    </g>
    <g id="Group_22" data-name="Group 22" transform="translate(365.001 -145.978)" opacity="0.03">
      <path id="Path_168" data-name="Path 168" d="M60,202.1a21,21,0,0,1-7.081,2.344,14.553,14.553,0,0,0,5.407-8.344,21.6,21.6,0,0,1-7.805,3.656q-3.656-4.78-8.986-4.782a10.862,10.862,0,0,0-8.7,4.43,16.45,16.45,0,0,0-3.6,10.711,20.578,20.578,0,0,0,.3,3.469A29.43,29.43,0,0,1,15.4,208.924a37.436,37.436,0,0,1-11.211-11.18A18.272,18.272,0,0,0,4,212.6a14.449,14.449,0,0,0,4,5.39,10.534,10.534,0,0,1-5.558-1.922v.187a16.824,16.824,0,0,0,2.8,9.634,11.957,11.957,0,0,0,7.062,5.226,10.508,10.508,0,0,1-3.236.515,12.836,12.836,0,0,1-2.323-.233,15.121,15.121,0,0,0,4.34,7.476,10.641,10.641,0,0,0,7.158,3.024,21.391,21.391,0,0,1-15.266,6.468A21.279,21.279,0,0,1,0,248.182a30.087,30.087,0,0,0,31.179,4.242A30.364,30.364,0,0,0,41,245.58a44.323,44.323,0,0,0,7.024-9.867,49.27,49.27,0,0,0,4.4-11.648A52.289,52.289,0,0,0,53.869,211.9q0-1.312-.038-1.969A29.758,29.758,0,0,0,60,202.1Z"/>
    </g>
  </g>
</svg>
